<?xml version="1.0" encoding="UTF-8"?>
<svg version="1.1" xmlns="http://www.w3.org/2000/svg" width="1200" height="675">
<path d="M0 0 C396 0 792 0 1200 0 C1200 114.18 1200 228.36 1200 346 C1186.49236111 347.12563657 1186.49236111 347.12563657 1181.79296875 347.06933594 C1180.72754852 347.05878174 1179.6621283 347.04822754 1178.56442261 347.03735352 C1177.45003815 347.01987061 1176.33565369 347.0023877 1175.1875 346.984375 C1173.99198517 346.96914795 1172.79647034 346.9539209 1171.56472778 346.93823242 C1167.70961297 346.88457521 1163.85486529 346.81922867 1160 346.75 C1158.68143005 346.72699829 1157.36286011 346.70399658 1156.0043335 346.68029785 C1140.35672582 346.39812722 1124.72696777 346.03191607 1109.125 344.75 C1107.88105469 344.65299805 1106.63710937 344.55599609 1105.35546875 344.45605469 C1075.24185615 341.65166527 1045.97185431 333.87666297 1016.6875 326.6875 C1009.40407981 324.90015162 1002.11918802 323.11925291 994.83054543 321.35331154 C991.94825859 320.65169891 989.06882501 319.93915593 986.18937683 319.22599792 C984.42415071 318.79686157 982.65880178 318.36822991 980.89331055 317.94018555 C980.10736511 317.74232452 979.32141968 317.5444635 978.51165771 317.34060669 C969.24626928 315.12289733 961.83774848 316.24329268 952.71313477 318.52270508 C951.60785934 318.79098618 950.50258392 319.05926727 949.36381531 319.3356781 C945.72091933 320.22195011 942.0812691 321.12089169 938.44140625 322.01953125 C935.89304929 322.64106375 933.34445614 323.26162857 930.79563904 323.88127136 C924.08452097 325.51420001 917.37617321 327.15828052 910.668396 328.80487061 C899.96633356 331.4318536 889.26141279 334.04706154 878.55451775 336.65427208 C874.83741816 337.56164534 871.12209348 338.47602493 867.40687561 339.3910675 C846.20461779 344.58775067 825.24474949 347.87509579 803.5859375 350.57421875 C802.28216785 350.73695597 800.97839821 350.89969318 799.63512039 351.06736183 C794.13113368 351.75351587 788.62682776 352.43701466 783.12166405 353.11366558 C776.07479678 353.97992606 769.0293277 354.85504632 761.98681641 355.75610352 C731.57102381 359.64236182 701.5165225 363.31390072 670.79485321 362.1072464 C665.39866179 361.90017932 660.00119729 361.72895216 654.60400391 361.55029297 C652.13656099 361.46829509 649.66912337 361.3861379 647.20169067 361.30383301 C645.93446293 361.26157089 644.66723518 361.21930878 643.3616066 361.17576599 C640.07880237 361.06422719 636.79619039 360.94835542 633.51361167 360.83040357 C614.26849151 360.14354154 595.04243155 359.8577387 575.78582734 359.77386951 C503.41346078 359.45067398 432.68513968 357.19069197 361.3125 344.375 C360.56661055 344.24114789 359.82072109 344.10729577 359.05222893 343.96938753 C342.76177732 341.03913133 326.50081412 337.96534553 310.2810936 334.66400623 C307.52205688 334.10248912 304.76121653 333.55068287 302 333 C301.06715872 332.80681812 300.13431744 332.61363625 299.17320824 332.41460037 C288.93887216 330.39096057 281.23721491 330.82727232 271.25463867 333.84570312 C270.21921432 334.14806381 269.18378998 334.4504245 268.11698914 334.76194763 C265.88112683 335.41638297 263.64685624 336.07627634 261.41405296 336.74107361 C257.8723266 337.79482973 254.32626844 338.83263127 250.77864075 339.86633301 C240.6970999 342.80736848 230.62488964 345.77990308 220.5534668 348.75537109 C214.38077802 350.57782937 208.20363573 352.38451055 202.02373695 354.18235779 C198.54367058 355.20026371 195.06946055 356.23665472 191.59501648 357.27355957 C189.44148396 357.90147206 187.28767395 358.52843386 185.13354492 359.15429688 C183.70464935 359.58910622 183.70464935 359.58910622 182.24688721 360.03269958 C123.48697365 376.83445207 60.5589891 348.22406025 0 340 C0 227.8 0 115.6 0 0 Z " fill="#000000" transform="translate(0,0)"/>
</svg>
