<?xml version="1.0" encoding="UTF-8"?>
<svg version="1.1" xmlns="http://www.w3.org/2000/svg" width="1920" height="1240">
<path d="M0 0 C633.6 0 1267.2 0 1920 0 C1920 259.71 1920 519.42 1920 787 C1891.15727133 787 1862.54548837 786.96981343 1833.75390625 786.23046875 C1811.00885295 785.66757151 1788.42428068 785.92505656 1765.7097168 787.28833008 C1764.18278882 787.37986825 1762.65585225 787.47126299 1761.12890625 787.5625 C1760.40891953 787.60553757 1759.6889328 787.64857513 1758.9471283 787.69291687 C1753.61990574 787.99755282 1748.33409937 788.08543102 1743 788 C1744.25490072 783.91427671 1745.77011206 780.35874076 1747.8984375 776.65625 C1759.40480573 756.30468164 1766.57111072 737.2235699 1760.5 713.5625 C1752.24216631 689.48684404 1736.74124692 669.72791565 1713.7578125 658.40234375 C1687.46083655 646.92669139 1661.44372729 655.27057472 1636 665 C1632.00102259 666.59612113 1628.02492931 668.23961126 1624.06640625 669.93359375 C1621.0666408 670.97682428 1619.13031922 671.47787034 1616 671 C1614.203125 669.89453125 1614.203125 669.89453125 1613 668 C1612.671875 665.19921875 1612.671875 665.19921875 1612.75 661.6875 C1612.75950684 661.04377441 1612.76901367 660.40004883 1612.77880859 659.73681641 C1612.85934394 655.67688766 1613.06963423 651.62781925 1613.3046875 647.57421875 C1614.03665831 634.75644935 1614.02161001 623.35208788 1610 611 C1609.03191406 610.87367188 1608.06382813 610.74734375 1607.06640625 610.6171875 C1604.29628465 610.22313476 1601.57520851 609.72034906 1598.83984375 609.1328125 C1581.27325667 605.45242107 1563.51794908 604.41703303 1545.652771 603.18359375 C1538.32510586 602.67645856 1530.99860444 602.15296118 1523.67227173 601.62698364 C1521.0750477 601.44282143 1518.47742066 601.26569119 1515.87963867 601.08959961 C1514.25307924 600.9752854 1512.62653239 600.86079201 1511 600.74609375 C1509.9441143 600.67745117 1509.9441143 600.67745117 1508.86689758 600.60742188 C1504.39577421 600.28513926 1500.02106559 599.69663156 1495.59326172 598.9934845 C1488.28548492 597.94296012 1481.13211467 597.68078707 1473.7578125 597.64941406 C1472.38431312 597.63683257 1471.01082073 597.62346885 1469.63733578 597.60940075 C1465.91525194 597.57386402 1462.19318402 597.55039507 1458.47099185 597.52965999 C1455.28444873 597.51059637 1452.09797003 597.48499053 1448.9114725 597.45954341 C1439.40895639 597.38403092 1429.90638793 597.32829291 1420.4037056 597.27869034 C1415.90252407 597.255169 1411.40136313 597.22894832 1406.90020174 597.20187253 C1355.66894656 596.89489695 1304.4544145 597.00455911 1253.22782898 597.78009605 C1251.06278575 597.81249572 1248.89773 597.84385262 1246.73266602 597.87483215 C1238.54070376 597.99220047 1230.34907341 598.12030282 1222.15756035 598.26618767 C1219.7112279 598.30917083 1217.26485284 598.34981084 1214.81843758 598.38778877 C1203.60188148 598.56677219 1192.55248244 598.89471658 1181.41900635 600.30675125 C1173.01640354 601.32920962 1164.64315755 601.23068129 1156.19140625 601.16015625 C1154.44661297 601.15385455 1152.70181552 601.14862503 1150.95701599 601.14439392 C1146.41227322 601.13125666 1141.86767173 601.10692134 1137.32299805 601.07904053 C1130.05821254 601.03551092 1122.79339401 601.00580161 1115.52851677 600.9829998 C1113.03250777 600.97302048 1110.53662714 600.9559547 1108.04066467 600.93800354 C1093.81932119 600.86296088 1079.31053849 600.89477333 1065.25 603.25 C1064.47906006 603.3742334 1063.70812012 603.4984668 1062.91381836 603.62646484 C1056.37206154 604.76492319 1050.23852146 606.65563987 1044.00390625 608.9140625 C1041.66591027 609.75926781 1039.42196252 610.46443089 1037 611 C1036.17509909 620.05917963 1035.86857609 629.09265945 1035.8125 638.1875 C1035.79960938 639.15228271 1035.78671875 640.11706543 1035.7734375 641.11108398 C1035.76498061 647.59381617 1036.26722529 653.92136623 1036.9765625 660.35546875 C1037.76955219 667.62432539 1038.19089405 674.8223729 1038.31640625 682.1328125 C1038.73588214 704.36585237 1040.20404645 725.86457191 1044.3125 747.75 C1044.59832443 749.27273529 1044.59832443 749.27273529 1044.8899231 750.82623291 C1047.13614842 762.61642592 1049.68348656 774.33355016 1052.46052551 786.00994873 C1052.66199692 786.86937073 1052.86346832 787.72879272 1053.07104492 788.61425781 C1053.25068283 789.36700989 1053.43032074 790.11976196 1053.61540222 790.89532471 C1054 793 1054 793 1054 797 C1052.948125 796.835 1051.89625 796.67 1050.8125 796.5 C1042.96056096 795.55282553 1035.17962755 795.63427605 1027.34594727 796.71948242 C1006.19757208 799.63693747 987.02045316 798.01907494 966.37988281 792.82128906 C960.72376363 791.44688969 955.02195589 790.31568544 949.3125 789.1875 C948.29148193 788.9810083 947.27046387 788.7745166 946.21850586 788.56176758 C927.86294758 784.90478622 910.44859686 785.48965183 892.0333252 788.45059204 C887.42672394 789.18604692 882.81092612 789.85897789 878.1953125 790.53515625 C877.29445923 790.66768295 876.39360596 790.80020966 875.4654541 790.93675232 C854.35827238 794.01152345 833.20475656 794.33087711 811.91113281 794.65942383 C810.45093719 794.68356354 810.45093719 794.68356354 808.96124268 794.70819092 C807.13508683 794.7376254 805.30886982 794.76357698 803.48260498 794.78521729 C797.60848976 794.88059694 791.83740444 795.35648597 786 796 C773.18620844 797.1355626 764.47383275 794.45147558 753 789 C736.41746051 781.35017519 717.8569457 785.38253048 700.75097656 789.54760742 C696.91252168 790.17883363 693.13013676 790.17585217 689.24609375 790.2109375 C687.48501774 790.23906861 685.7239502 790.26773323 683.96289062 790.296875 C681.22567575 790.33757348 678.48860788 790.37449835 675.7512207 790.40136719 C664.91603851 790.51658225 654.47376279 791.1808679 643.77328491 792.9309082 C638.0064554 793.87401854 632.41707233 794.47759395 626.5625 794.375 C625.65282471 794.36919922 624.74314941 794.36339844 623.8059082 794.35742188 C617.81167952 794.24870129 611.96378147 793.67783448 606.02099609 792.91894531 C572.54874553 788.71223798 537.46554978 789.33524224 503.95874023 793.02001953 C491.36335895 794.37544244 481.09070329 793.46429202 469.0625 789.5 C467.07484725 788.86262004 465.08658615 788.2271334 463.09765625 787.59375 C462.23664307 787.31208984 461.37562988 787.03042969 460.48852539 786.74023438 C449.1198421 783.35851675 437.33044583 784.98851728 425.8125 786.8125 C414.58297691 788.4709619 403.37197044 789.72780385 392.0625 790.6875 C391.36943756 790.74789459 390.67637512 790.80828918 389.96231079 790.87051392 C367.77479874 792.78798577 345.60018077 793.20123453 323.33931351 793.18847656 C321.1621502 793.1874885 318.9849939 793.18848831 316.80783081 793.18969727 C295.04018526 793.19419343 273.36489886 792.64643229 251.63493347 791.30900574 C242.74617297 790.78022114 234.09746714 790.8984262 225.25 791.875 C224.45207031 791.95363281 223.65414062 792.03226563 222.83203125 792.11328125 C222.04699219 792.19707031 221.26195312 792.28085937 220.453125 792.3671875 C219.76379883 792.44050293 219.07447266 792.51381836 218.36425781 792.58935547 C215.81192056 792.97982134 215.81192056 792.97982134 212.68725586 794.03393555 C208.77399896 795.05921248 205.58741281 795.18343423 201.55078125 795.08984375 C200.06951083 795.06667523 198.58822727 795.04433588 197.10693359 795.02270508 C196.3275946 795.00817291 195.54825562 794.99364075 194.74530029 794.97866821 C179.07056192 794.71341793 163.51243387 795.23635555 147.875 796.3125 C146.52458115 796.40118851 146.52458115 796.40118851 145.1468811 796.4916687 C133.7414109 797.25232897 122.51313772 798.52530171 111.22705078 800.34204102 C100.2699515 802.09255523 92.52520137 800.58717152 82.29101562 796.49072266 C72.52041676 792.67832655 64.38839468 794.08573231 54.25 795.875 C46.24697764 797.21168567 38.26280534 798.44433228 30.1875 799.25 C29.45112305 799.32976074 28.71474609 799.40952148 27.95605469 799.49169922 C18.6154798 800.35479545 9.45180798 800 0 800 C0 536 0 272 0 0 Z " fill="#000000" transform="translate(0,0)"/>
<path d="M0 0 C10.98559321 7.93514718 17.44424451 20.08752435 20.25 33.1875 C22.85599311 50.0553827 20.47644972 67.52045571 11 82 C5.26494607 89.64201253 -1.28503124 95.86559503 -10 100 C-10.7017334 100.34732178 -11.4034668 100.69464355 -12.12646484 101.05249023 C-15.87044543 102.28701773 -19.36895937 102.29183144 -23.265625 102.24609375 C-24.15211731 102.24056992 -25.03860962 102.23504608 -25.95196533 102.22935486 C-41.97986976 102.02340981 -58.00051839 101.03800303 -74.00506592 100.20404053 C-77.70478576 100.01326717 -81.40486518 99.83004161 -85.1049614 99.6467371 C-88.67030691 99.46918781 -92.23540989 99.28711423 -95.80045319 99.10360527 C-97.50211942 99.01652503 -99.20385665 98.93082082 -100.90566254 98.84651375 C-103.25996449 98.72917024 -105.61387178 98.60579603 -107.96777344 98.48071289 C-109.02095512 98.43000137 -109.02095512 98.43000137 -110.09541321 98.37826538 C-114.88569226 98.11430774 -114.88569226 98.11430774 -116 97 C-115.66521643 85.81437736 -115.00681751 67.12743395 -107.3984375 58.4453125 C-103.86729901 55.54235498 -100.76446132 53.40815844 -96.28125 52.37109375 C-93.88981816 51.25988323 -93.88981816 51.25988323 -93.37597656 49.27954102 C-93.05669191 47.74268321 -92.76802983 46.19930134 -92.50195312 44.65234375 C-91.58164526 39.78939404 -89.85824081 35.17126434 -88.25 30.5 C-87.92773438 29.51902344 -87.60546875 28.53804687 -87.2734375 27.52734375 C-81.97998541 12.11888436 -72.23255804 2.04332127 -57.76855469 -5.15429688 C-38.78200567 -14.23345284 -17.0675399 -11.95594166 0 0 Z " fill="#000000" transform="translate(1715,689)"/>
</svg>
