<?xml version="1.0" encoding="UTF-8"?>
<svg version="1.1" xmlns="http://www.w3.org/2000/svg" width="357" height="319">
<path d="M0 0 C0.73379883 0.16628906 1.46759766 0.33257812 2.22363281 0.50390625 C28.19103938 6.58210285 51.68749088 19.67251839 71 38 C71.88558594 38.83273438 72.77117187 39.66546875 73.68359375 40.5234375 C86.10033927 52.53509771 95.16875598 65.6327715 103 81 C103.34047363 81.66708984 103.68094727 82.33417969 104.03173828 83.02148438 C113.35234444 101.54098109 118.09264601 120.31232904 119 141 C124.28 141 129.56 141 135 141 C135 163.11 135 185.22 135 208 C122.625 208.495 122.625 208.495 110 209 C108.865625 211.64 107.73125 214.28 106.5625 217 C89.37571937 255.86475702 59.33007101 284.93792413 19.65551758 300.61547852 C4.15073559 306.05515768 -10.82239983 308.67751898 -27.25854492 308.52148438 C-29.93305331 308.50003566 -32.60486879 308.52142523 -35.27929688 308.546875 C-50.28994193 308.57199727 -65.25587977 306.64570526 -79.1875 300.75 C-80.28155151 300.30394409 -80.28155151 300.30394409 -81.39770508 299.84887695 C-100.83879275 291.76856325 -117.42606029 281.15568511 -133 267 C-134.01126953 266.09701172 -134.01126953 266.09701172 -135.04296875 265.17578125 C-150.04898945 251.02521066 -163.1168057 230.42516854 -170 211 C-170 210.01 -170 209.02 -170 208 C-170.72179443 208.00523682 -171.44358887 208.01047363 -172.18725586 208.01586914 C-175.43732849 208.03657358 -178.68738728 208.04963918 -181.9375 208.0625 C-183.07380859 208.07087891 -184.21011719 208.07925781 -185.38085938 208.08789062 C-186.46044922 208.09111328 -187.54003906 208.09433594 -188.65234375 208.09765625 C-189.65257568 208.10289307 -190.65280762 208.10812988 -191.68334961 208.11352539 C-194 208 -194 208 -195 207 C-195.09413687 204.94443339 -195.11742998 202.88559819 -195.11352539 200.82788086 C-195.11367142 200.18399918 -195.11381744 199.54011749 -195.1139679 198.87672424 C-195.11326885 196.73939697 -195.10547691 194.60215587 -195.09765625 192.46484375 C-195.09579204 190.98653715 -195.09436815 189.50822993 -195.09336853 188.02992249 C-195.08954359 184.13201198 -195.07971352 180.23413851 -195.06866455 176.33624268 C-195.05844992 172.36153667 -195.0538708 168.38682471 -195.04882812 164.41210938 C-195.03809122 156.60805404 -195.02049462 148.80403692 -195 141 C-189.72 141 -184.44 141 -179 141 C-179.061875 139.865625 -179.12375 138.73125 -179.1875 137.5625 C-179.09577246 117.90223106 -172.51616643 96.87840967 -163.0234375 79.83789062 C-162.01303051 78.0234002 -161.03611785 76.19381351 -160.0625 74.359375 C-140.50190245 38.13164215 -106.93381782 13.52630163 -67.96069336 1.77368164 C-45.90555096 -4.52000468 -22.36221509 -5.15192983 0 0 Z " fill="#050505" transform="translate(211,3)"/>
<path d="M0 0 C1.76411111 0.90025933 3.58143566 1.69503371 5.40625 2.46484375 C36.15772267 15.51290128 61.99977446 43.20628673 76.08203125 73.0625 C77.54297237 76.68983669 78.82528203 80.36049212 80.08203125 84.0625 C80.57688293 85.35614779 81.07649942 86.64798833 81.58203125 87.9375 C86.48672094 101.07027568 89.08203125 113.0072422 89.08203125 127.0625 C-5.29796875 127.0625 -99.67796875 127.0625 -196.91796875 127.0625 C-196.91796875 113.15735531 -196.91796875 113.15735531 -195.16796875 106.0625 C-194.89617798 104.90886963 -194.89617798 104.90886963 -194.61889648 103.73193359 C-193.08198496 97.37546437 -191.22651541 91.18403947 -188.91796875 85.0625 C-188.41716797 83.69351563 -188.41716797 83.69351563 -187.90625 82.296875 C-180.64856409 63.6560817 -169.60675486 47.54416298 -155.91796875 33.0625 C-155.17160156 32.25167969 -154.42523438 31.44085938 -153.65625 30.60546875 C-140.92757241 17.24561707 -124.08245271 5.87021826 -106.91796875 -0.9375 C-106.1909375 -1.26105469 -105.46390625 -1.58460937 -104.71484375 -1.91796875 C-73.76883533 -15.29033332 -30.13011813 -16.32331456 0 0 Z " fill="#020202" transform="translate(234.91796875,16.9375)"/>
<path d="M0 0 C89.1 0 178.2 0 270 0 C267.95964761 6.12105717 266.00573242 11.46885138 263 17.0625 C262.61191162 17.78711426 262.22382324 18.51172852 261.82397461 19.25830078 C255.54954914 30.71486796 248.2229411 41.21982273 239.19140625 50.66796875 C236.96145233 52.9684781 236.96145233 52.9684781 235.03125 55.53125 C231.31757643 60.04479172 226.58885248 63.41684091 222 67 C221.14148438 67.67417969 220.28296875 68.34835937 219.3984375 69.04296875 C209.76511534 76.33344368 199.17446605 82.40883803 188 87 C187.19175781 87.33902344 186.38351563 87.67804688 185.55078125 88.02734375 C183.04413396 89.04662616 180.5264468 90.03080274 178 91 C177.0821875 91.35449219 176.164375 91.70898438 175.21875 92.07421875 C162.61280412 96.6320137 149.70147068 97.34065375 136.4284668 97.26074219 C134.30293636 97.24995145 132.17824072 97.26075519 130.05273438 97.2734375 C120.03706574 97.28445504 110.35909256 96.85035087 101 93 C98.62891504 92.46162424 96.25332051 91.94295415 93.875 91.4375 C75.05839816 87.02612072 58.56782362 76.38153463 44 64 C43.06542969 63.21238281 42.13085938 62.42476563 41.16796875 61.61328125 C28.83068835 50.79592792 19.21909321 38.15402037 11 24 C10.06787979 22.55900576 9.13110488 21.12100003 8.1875 19.6875 C6.21044573 16.54669473 4.89782465 13.39268526 3.69140625 9.890625 C2.93404874 7.70945514 2.93404874 7.70945514 1.3125 4.625 C0 2 0 2 0 0 Z " fill="#020202" transform="translate(46,210)"/>
<path d="M0 0 C0.73379883 0.16628906 1.46759766 0.33257812 2.22363281 0.50390625 C28.19103938 6.58210285 51.68749088 19.67251839 71 38 C71.88558594 38.83273438 72.77117187 39.66546875 73.68359375 40.5234375 C86.10033927 52.53509771 95.16875598 65.6327715 103 81 C103.34047363 81.66708984 103.68094727 82.33417969 104.03173828 83.02148438 C113.35234444 101.54098109 118.09264601 120.31232904 119 141 C123.95 141 128.9 141 134 141 C134 142.98 134 144.96 134 147 C25.76 147 -82.48 147 -194 147 C-194 145.02 -194 143.04 -194 141 C-189.05 141 -184.1 141 -179 141 C-179.061875 139.865625 -179.12375 138.73125 -179.1875 137.5625 C-179.09577246 117.90223106 -172.51616643 96.87840967 -163.0234375 79.83789062 C-162.01303051 78.0234002 -161.03611785 76.19381351 -160.0625 74.359375 C-140.50190245 38.13164215 -106.93381782 13.52630163 -67.96069336 1.77368164 C-45.90555096 -4.52000468 -22.36221509 -5.15192983 0 0 Z M-61 6 C-62.15628906 6.28133789 -62.15628906 6.28133789 -63.3359375 6.56835938 C-65.77188385 7.16956339 -68.19940439 7.79586691 -70.625 8.4375 C-71.35992676 8.63045654 -72.09485352 8.82341309 -72.85205078 9.0222168 C-76.99550038 10.19021058 -80.40624282 11.69041036 -84.10668945 13.95605469 C-86.30200032 15.16651881 -88.53148315 16.01625446 -90.87890625 16.89453125 C-96.03052129 18.89420334 -100.39927917 21.56110348 -104.9375 24.6875 C-106.11070801 25.48631592 -106.11070801 25.48631592 -107.30761719 26.30126953 C-140.89641823 49.41875838 -164.07285733 83.64656433 -172.3125 123.75 C-173.2596876 130.10059833 -173.2596876 130.10059833 -173 141 C-78.62 141 15.76 141 113 141 C113 123.65864511 109.23680771 106.37537439 101 91 C100.55269531 89.75863281 100.10539062 88.51726562 99.64453125 87.23828125 C98.11687758 83.09437781 96.12548358 79.43948481 93.8125 75.6875 C93.41595215 75.03869873 93.0194043 74.38989746 92.61083984 73.72143555 C76.58109331 47.80337508 51.26085236 22.75361745 21.765625 12.921875 C19.59895802 12.19965267 17.46049231 11.39273151 15.3359375 10.5546875 C10.45427163 8.71142195 5.45319917 7.54356288 0.375 6.375 C-0.54023438 6.1584375 -1.45546875 5.941875 -2.3984375 5.71875 C-21.41246561 1.26748908 -42.01284782 1.2168381 -61 6 Z " fill="#DAD9D8" transform="translate(211,3)"/>
<path d="M0 0 C108.24 0 216.48 0 328 0 C328 1.65 328 3.3 328 5 C315.625 5.495 315.625 5.495 303 6 C301.8553125 8.6915625 301.8553125 8.6915625 300.6875 11.4375 C300.25824219 12.44683594 299.82898438 13.45617187 299.38671875 14.49609375 C298.34378645 17.13133397 297.45289859 19.70119461 296.609375 22.3984375 C295.0965336 26.99699124 293.03566719 31.03658568 290.5625 35.1875 C290.12639404 35.9201709 289.69028809 36.6528418 289.2409668 37.40771484 C284.58875577 44.99232324 279.07967286 51.53226292 273 58 C272.43152344 58.61617188 271.86304688 59.23234375 271.27734375 59.8671875 C247.60924967 85.3559042 212.7711912 105.15790517 177.33311462 106.48094177 C173.80145297 106.54900324 170.27356245 106.55501602 166.74145508 106.52148438 C164.06694669 106.50003566 161.39513121 106.52142523 158.72070312 106.546875 C143.71005807 106.57199727 128.74412023 104.64570526 114.8125 98.75 C114.08313232 98.45262939 113.35376465 98.15525879 112.60229492 97.84887695 C93.16120725 89.76856325 76.57393971 79.15568511 61 65 C60.32582031 64.39800781 59.65164062 63.79601562 58.95703125 63.17578125 C43.95101055 49.02521066 30.8831943 28.42516854 24 9 C24 8.01 24 7.02 24 6 C16.08 6 8.16 6 0 6 C0 4.02 0 2.04 0 0 Z M29 5 C30.52301081 10.33053783 31.3044018 12.68704287 34 17 C34.44472656 18.06089844 34.88945313 19.12179688 35.34765625 20.21484375 C49.11800709 52.79068756 79.38174908 79.56473419 111.50341797 93.04980469 C117.85272786 95.46634235 124.4493285 97.00471025 131.06103516 98.51513672 C133 99 133 99 136.04296875 100.06640625 C144.08100052 102.60417322 152.53408043 102.18623833 160.87866211 102.18530273 C163.0332472 102.18747057 165.18730321 102.20562162 167.34179688 102.22460938 C179.96878786 102.27814423 192.40227523 101.48500161 204.375 97.125 C205.14046143 96.85671387 205.90592285 96.58842773 206.69458008 96.31201172 C211.92252556 94.45489897 217.04829772 92.5134273 222 90 C223.12535156 89.43667969 224.25070313 88.87335938 225.41015625 88.29296875 C237.27033056 82.23413326 248.03459605 75.20549104 257.78125 66.04296875 C260 64 260 64 262.58203125 61.953125 C266.21489088 59.01866649 269.03570827 55.59413149 272 52 C272.75410156 51.09507812 273.50820313 50.19015625 274.28515625 49.2578125 C284.485678 36.55161584 295.01399608 20.94401569 299 5 C209.9 5 120.8 5 29 5 Z " fill="#F8F7F7" transform="translate(17,205)"/>
<path d="M0 0 C0 4.95 0 9.9 0 15 C94.71 15 189.42 15 287 15 C287 13.02 287 11.04 287 9 C287.99 9.33 288.98 9.66 290 10 C290.33 11.65 290.66 13.3 291 15 C295.95 15.33 300.9 15.66 306 16 C306 17.32 306 18.64 306 20 C198.42 20 90.84 20 -20 20 C-20 18.68 -20 17.36 -20 16 C-15.05 16 -10.1 16 -5 16 C-5.33 14.02 -5.66 12.04 -6 10 C-5.51171875 7.48046875 -5.51171875 7.48046875 -4.6875 5.1875 C-4.42324219 4.41792969 -4.15898438 3.64835938 -3.88671875 2.85546875 C-2.96395414 0.92457364 -2.29055411 0 0 0 Z " fill="#F1EFEF" transform="translate(38,129)"/>
<path d="M0 0 C8.25 0 16.5 0 25 0 C28.8125 9.1875 28.8125 9.1875 29.99536133 12.05541992 C31.7421989 16.2333729 33.5050426 20.19853495 36 24 C36.33 22.35 36.66 20.7 37 19 C40.07247538 22.68697045 42.66647991 26.55310237 45.1875 30.625 C49.32676358 37.17425009 53.92107175 43.14106183 59 49 C59.70769531 49.84175781 60.41539063 50.68351562 61.14453125 51.55078125 C79.36854233 72.66436526 104.09588443 86.35502111 131.06103516 92.51513672 C133 93 133 93 136.04296875 94.06640625 C144.08100052 96.60417322 152.53408043 96.18623833 160.87866211 96.18530273 C163.0332472 96.18747057 165.18730321 96.20562162 167.34179688 96.22460938 C179.96878786 96.27814423 192.40227523 95.48500161 204.375 91.125 C205.14046143 90.85671387 205.90592285 90.58842773 206.69458008 90.31201172 C211.92252556 88.45489897 217.04829772 86.5134273 222 84 C223.12535156 83.43667969 224.25070313 82.87335938 225.41015625 82.29296875 C240.39489656 74.63793147 253.23615807 65.0817836 265 53 C265.51095215 52.51168701 266.0219043 52.02337402 266.54833984 51.52026367 C270.90125313 47.31951138 274.50173565 42.90773355 277.9375 37.9375 C278.45256104 37.19870605 278.96762207 36.45991211 279.49829102 35.69873047 C286.40463792 25.66313039 292.23331571 15.22920819 297 4 C298.578125 5.671875 298.578125 5.671875 300 8 C297.47120579 31.35415834 272.93683661 55.58436063 255.96923828 69.68798828 C230.33624133 89.87713661 199.38788488 101.8314094 166.74145508 101.52148438 C164.06694669 101.50003566 161.39513121 101.52142523 158.72070312 101.546875 C143.71005807 101.57199727 128.74412023 99.64570526 114.8125 93.75 C114.08313232 93.45262939 113.35376465 93.15525879 112.60229492 92.84887695 C93.16120725 84.76856325 76.57393971 74.15568511 61 60 C60.32582031 59.39800781 59.65164062 58.79601562 58.95703125 58.17578125 C43.95101055 44.02521066 30.8831943 23.42516854 24 4 C24 3.01 24 2.02 24 1 C16.08 1 8.16 1 0 1 C0 0.67 0 0.34 0 0 Z " fill="#D4D3D3" transform="translate(17,210)"/>
<path d="M0 0 C0 0.66 0 1.32 0 2 C1.051875 1.98259766 1.051875 1.98259766 2.125 1.96484375 C7.86113102 1.91028816 13.32778253 2.14381623 19 3 C18.67 3.99 18.34 4.98 18 6 C17.21052979 6.01458252 16.42105957 6.02916504 15.60766602 6.04418945 C-6.37153057 6.40789692 -6.37153057 6.40789692 -28 10 C-28.76940918 10.1861084 -29.53881836 10.3722168 -30.33154297 10.56396484 C-32.76917832 11.16595225 -35.19804352 11.79387084 -37.625 12.4375 C-38.36000732 12.63053711 -39.09501465 12.82357422 -39.85229492 13.02246094 C-43.99575417 14.19011547 -47.40633545 15.69046707 -51.10668945 17.95605469 C-53.30200032 19.16651881 -55.53148315 20.01625446 -57.87890625 20.89453125 C-63.03055325 22.89421575 -67.39918847 25.56119644 -71.9375 28.6875 C-72.71891357 29.21931885 -73.50032715 29.7511377 -74.30541992 30.29907227 C-80.48693668 34.55210424 -86.42715128 38.96459218 -92 44 C-92.50305664 44.45391113 -93.00611328 44.90782227 -93.52441406 45.37548828 C-117.58305889 67.39637904 -134.41147925 99.6748986 -139 132 C-139.66 131.34 -140.32 130.68 -141 130 C-143.17038477 130.79299706 -143.17038477 130.79299706 -143.6328125 132.84765625 C-143.79523438 133.57855469 -143.95765625 134.30945313 -144.125 135.0625 C-144.29257813 135.79597656 -144.46015625 136.52945313 -144.6328125 137.28515625 C-144.75398438 137.85105469 -144.87515625 138.41695312 -145 139 C-146.44009379 135.09684925 -145.67138412 131.53245922 -144.9375 127.5625 C-144.80174561 126.82459229 -144.66599121 126.08668457 -144.52612305 125.32641602 C-141.61988144 110.34378318 -137.46902981 96.20356856 -130.0234375 82.83789062 C-129.01303051 81.0234002 -128.03611785 79.19381351 -127.0625 77.359375 C-107.50664014 41.14041671 -73.93095117 16.50789801 -34.95703125 4.77368164 C-23.50738695 1.50112302 -11.94518121 -0.41912917 0 0 Z " fill="#DDDCDB" transform="translate(178,0)"/>
<path d="M0 0 C2.16050874 -0.00222529 4.32053516 -0.02060274 6.48095703 -0.03930664 C19.73490225 -0.09412674 19.73490225 -0.09412674 26.13330078 2.18530273 C28.13330078 4.18530273 28.13330078 4.18530273 28.13330078 8.18530273 C26.86736084 8.27094482 25.6014209 8.35658691 24.29711914 8.44482422 C19.57997875 8.76463467 14.86307789 9.08786699 10.14624023 9.41210938 C8.10854314 9.55170869 6.07078308 9.69039213 4.03295898 9.828125 C1.09618182 10.02677879 -1.84034973 10.22877466 -4.77685547 10.43139648 C-6.13352074 10.52208656 -6.13352074 10.52208656 -7.51759338 10.61460876 C-12.34362293 10.95109174 -17.07679406 11.4895302 -21.86669922 12.18530273 C-23.91567118 12.32146911 -25.96690078 12.42727896 -28.01904297 12.50170898 C-29.12441406 12.54360352 -30.22978516 12.58549805 -31.36865234 12.62866211 C-32.50238281 12.66797852 -33.63611328 12.70729492 -34.80419922 12.74780273 C-35.965 12.79098633 -37.12580078 12.83416992 -38.32177734 12.87866211 C-41.16998154 12.98415115 -44.01826451 13.08626828 -46.86669922 13.18530273 C-46.53669922 13.84530273 -46.20669922 14.50530273 -45.86669922 15.18530273 C-41.56974086 16.19161803 -37.39880241 16.31389037 -32.99951172 16.31811523 C-31.05238281 16.32004883 -31.05238281 16.32004883 -29.06591797 16.32202148 C-28.39608887 16.31992676 -27.72625977 16.31783203 -27.03613281 16.31567383 C-25.00431795 16.31033589 -22.9727259 16.31562751 -20.94091797 16.32202148 C-13.26887828 16.36577143 -13.26887828 16.36577143 -5.64013672 15.68139648 C-0.53642199 15.01041121 4.49277273 15.07895309 9.63330078 15.12280273 C10.64650391 15.12731445 11.65970703 15.13182617 12.70361328 15.13647461 C15.18023905 15.14815681 17.65673735 15.16453692 20.13330078 15.18530273 C20.13330078 15.51530273 20.13330078 15.84530273 20.13330078 16.18530273 C16.20514632 16.74007889 12.27650361 17.29125411 8.34741211 17.83935547 C6.36758272 18.11625969 4.38813181 18.3958658 2.40869141 18.67553711 C-10.157682 20.4252853 -22.47075519 21.41506836 -35.15576172 21.48046875 C-36.71672586 21.49205199 -38.27764848 21.51260265 -39.83837891 21.54199219 C-57.80959411 21.87862336 -57.80959411 21.87862336 -63.86669922 17.18530273 C-64.92919922 14.43530273 -64.92919922 14.43530273 -64.86669922 12.18530273 C-50.38361014 -2.29778634 -19.02314865 -0.00219009 0 0 Z " fill="#DFDEDE" transform="translate(195.86669921875,76.814697265625)"/>
<path d="M0 0 C4.09355686 3.13025712 6.73213097 6.85124364 7.44873047 11.99682617 C7.6468752 16.44682659 6.97357719 18.63670359 4.16748047 21.97729492 C4.15330078 21.31342773 4.13912109 20.64956055 4.12451172 19.96557617 C3.88781891 15.58356073 3.67636729 12.72472245 1.16748047 9.03979492 C-5.28394473 4.6044401 -12.07018827 3.48464854 -19.77001953 3.66479492 C-20.99664307 3.68280151 -20.99664307 3.68280151 -22.24804688 3.70117188 C-41.65811114 4.13934335 -64.95402392 6.74500344 -80.83251953 18.97729492 C-77.37397739 18.83617624 -73.91574262 18.68851183 -70.45751953 18.53979492 C-69.49201172 18.50047852 -68.52650391 18.46116211 -67.53173828 18.4206543 C-62.85263915 18.21653252 -58.20899077 17.94398192 -53.55126953 17.44604492 C-49.58712969 17.02309276 -45.69813268 16.87234159 -41.70751953 16.91479492 C-40.59119141 16.92381836 -39.47486328 16.9328418 -38.32470703 16.94213867 C-37.09107422 16.95954102 -37.09107422 16.95954102 -35.83251953 16.97729492 C-39.0349365 18.80555106 -41.8558799 19.43748397 -45.49658203 19.94213867 C-46.61049316 20.10101563 -47.7244043 20.25989258 -48.87207031 20.42358398 C-50.05526855 20.58568359 -51.2384668 20.7477832 -52.45751953 20.91479492 C-54.90564999 21.26094251 -57.35356703 21.60860276 -59.80126953 21.95776367 C-61.00009766 22.12840332 -62.19892578 22.29904297 -63.43408203 22.47485352 C-68.64492033 23.24524901 -73.83420059 24.13939791 -79.01074219 25.11376953 C-83.99564096 26.00103917 -88.79252746 26.10820381 -93.83251953 25.97729492 C-92.38018598 19.14766738 -86.49413857 14.8263437 -80.95361328 10.97729492 C-74.50066798 7.07355748 -68.0580698 4.10746894 -60.83251953 1.97729492 C-60.14673828 1.76298828 -59.46095703 1.54868164 -58.75439453 1.32788086 C-42.53650878 -3.62988269 -15.69973645 -8.76181668 0 0 Z " fill="#E8E7E7" transform="translate(219.83251953125,50.022705078125)"/>
<path d="M0 0 C0 0.99 0 1.98 0 3 C-0.66 3 -1.32 3 -2 3 C-2.38285156 4.11761719 -2.38285156 4.11761719 -2.7734375 5.2578125 C-6.64718031 13.9182184 -16.09632057 18.07098632 -24.47265625 21.39453125 C-36.12730899 25.69703411 -48.54947689 28.77710061 -61 29 C-61.6506543 29.01901367 -62.30130859 29.03802734 -62.97167969 29.05761719 C-87.92221601 29.75037218 -87.92221601 29.75037218 -97 22 C-99.29244085 19.60240132 -99.95657203 18.38981771 -100.328125 15.0546875 C-100.30234375 14.00539063 -100.2765625 12.95609375 -100.25 11.875 C-100.23453125 10.82054688 -100.2190625 9.76609375 -100.203125 8.6796875 C-100 6 -100 6 -99 4 C-98.34 4 -97.68 4 -97 4 C-96.97421875 4.66386719 -96.9484375 5.32773438 -96.921875 6.01171875 C-96.57104708 11.47347154 -96.2993666 15.1783408 -92 19 C-78.07952486 26.95455722 -52.68404519 22.27839058 -38.15625 18.51953125 C-36.01896298 17.93650106 -33.88354063 17.34659397 -31.75 16.75 C-30.74356445 16.47470459 -29.73712891 16.19940918 -28.70019531 15.91577148 C-21.86243402 13.91251231 -15.7699814 11.24095138 -10 7 C-9.67 6.34 -9.34 5.68 -9 5 C-9.86165771 5.09087891 -10.72331543 5.18175781 -11.61108398 5.27539062 C-14.84801646 5.61454132 -18.08534956 5.94949791 -21.32299805 6.28173828 C-22.71672358 6.42560049 -24.11028423 6.57107044 -25.50366211 6.71826172 C-33.01965176 7.51112177 -40.43380667 8.20109484 -48 8 C-44.45250739 5.63500493 -42.15253239 5.48024784 -37.9375 5 C-33.55058438 4.47193564 -29.20161762 3.91236747 -24.875 3 C-16.67804362 1.27576544 -8.404081 -0.39088749 0 0 Z " fill="#EAE8E9" transform="translate(227,101)"/>
<path d="M0 0 C-3.79597133 3.79597133 -9.98083595 4.52377528 -15 6 C-7.74 6.33 -0.48 6.66 7 7 C7 7.33 7 7.66 7 8 C4.12543208 8.33747548 1.25043941 8.67010463 -1.625 9 C-2.43324219 9.09539062 -3.24148437 9.19078125 -4.07421875 9.2890625 C-8.40973739 9.78253617 -12.62737311 10.11320717 -17 10 C-16.67 10.66 -16.34 11.32 -16 12 C-11.70304164 13.0063153 -7.53210319 13.12858764 -3.1328125 13.1328125 C-1.18568359 13.13474609 -1.18568359 13.13474609 0.80078125 13.13671875 C1.47061035 13.13462402 2.14043945 13.1325293 2.83056641 13.13037109 C4.86238127 13.12503315 6.89397332 13.13032478 8.92578125 13.13671875 C16.59782094 13.1804687 16.59782094 13.1804687 24.2265625 12.49609375 C29.33027723 11.82510848 34.35947194 11.89365035 39.5 11.9375 C40.51320313 11.94201172 41.52640625 11.94652344 42.5703125 11.95117188 C45.04693827 11.96285407 47.52343657 11.97923418 50 12 C50 12.33 50 12.66 50 13 C46.07184554 13.55477616 42.14320283 14.10595138 38.21411133 14.65405273 C36.23428194 14.93095695 34.25483103 15.21056306 32.27539062 15.49023438 C19.70901722 17.23998257 7.39594403 18.22976562 -5.2890625 18.29516602 C-6.85002664 18.30674926 -8.41094926 18.32729992 -9.97167969 18.35668945 C-27.94289489 18.69332063 -27.94289489 18.69332063 -34 14 C-35.0625 11.25 -35.0625 11.25 -35 9 C-26.11746027 0.11746027 -11.82114961 -0.26269221 0 0 Z " fill="#E1DFDF" transform="translate(166,80)"/>
<path d="M0 0 C0 0.66 0 1.32 0 2 C1.051875 1.98259766 1.051875 1.98259766 2.125 1.96484375 C7.86113102 1.91028816 13.32778253 2.14381623 19 3 C18.67 3.99 18.34 4.98 18 6 C17.21052979 6.01458252 16.42105957 6.02916504 15.60766602 6.04418945 C-6.37153057 6.40789692 -6.37153057 6.40789692 -28 10 C-28.76940918 10.1861084 -29.53881836 10.3722168 -30.33154297 10.56396484 C-32.76917832 11.16595225 -35.19804352 11.79387084 -37.625 12.4375 C-38.36000732 12.63053711 -39.09501465 12.82357422 -39.85229492 13.02246094 C-44.74714718 14.40186305 -48.63592032 16.39604736 -53 19 C-54.6711181 19.70672836 -56.35764898 20.37904613 -58.0625 21 C-62.16614946 22.57400253 -65.41395852 24.48977096 -69 27 C-69.66 27 -70.32 27 -71 27 C-71.33 25.35 -71.66 23.7 -72 22 C-69.06742967 20.49021482 -66.12819106 18.99389797 -63.1875 17.5 C-62.35412109 17.07074219 -61.52074219 16.64148438 -60.66210938 16.19921875 C-59.85966797 15.79316406 -59.05722656 15.38710937 -58.23046875 14.96875 C-57.49207764 14.59169922 -56.75368652 14.21464844 -55.99291992 13.82617188 C-54 13 -54 13 -51 13 C-50.67 12.01 -50.34 11.02 -50 10 C-47.26267132 8.84108686 -44.63864965 7.88497909 -41.8125 7 C-41.00111572 6.73872314 -40.18973145 6.47744629 -39.35375977 6.20825195 C-26.39148149 2.12930233 -13.59731882 -0.21583046 0 0 Z " fill="#CECDCC" transform="translate(178,0)"/>
<path d="M0 0 C6.01209325 9.01813987 5.54001086 22.51224768 6 33 C10.95 33 15.9 33 21 33 C21 34.98 21 36.96 21 39 C-87.24 39 -195.48 39 -307 39 C-307 37.02 -307 35.04 -307 33 C-302.05 33 -297.1 33 -292 33 C-291.67 32.34 -291.34 31.68 -291 31 C-291 31.99 -291 32.98 -291 34 C-295.95 34 -300.9 34 -306 34 C-306 35.32 -306 36.64 -306 38 C-198.42 38 -90.84 38 20 38 C20 36.68 20 35.36 20 34 C15.05 34 10.1 34 5 34 C4.34 32.35 3.68 30.7 3 29 C1.515 30.98 1.515 30.98 0 33 C-0.66 27.39 -1.32 21.78 -2 16 C-0.35 17.32 1.3 18.64 3 20 C2.7834375 18.89140625 2.566875 17.7828125 2.34375 16.640625 C2.06230682 15.17712047 1.7810675 13.71357673 1.5 12.25 C1.35691406 11.52039063 1.21382813 10.79078125 1.06640625 10.0390625 C0.41111121 6.60656468 0 3.50830509 0 0 Z " fill="#ACABAC" transform="translate(324,111)"/>
<path d="M0 0 C29.98391616 -1.19404976 57.60325657 8.64762776 83 24 C82.34 24.33 81.68 24.66 81 25 C79.27587891 24.30322266 79.27587891 24.30322266 77.2265625 23.1640625 C76.4840625 22.75929688 75.7415625 22.35453125 74.9765625 21.9375 C73.81253906 21.2878125 73.81253906 21.2878125 72.625 20.625 C71.09857454 19.77983154 69.56999346 18.93854206 68.0390625 18.1015625 C67.02126709 17.53429443 67.02126709 17.53429443 65.98291016 16.95556641 C63.99841933 15.99923828 62.15006528 15.45356225 60 15 C60.495 16.98 60.495 16.98 61 19 C59.66598223 18.56459142 58.33283226 18.12652414 57 17.6875 C56.2575 17.44386719 55.515 17.20023438 54.75 16.94921875 C52.59778556 16.20633791 50.46911179 15.39518442 48.3515625 14.55859375 C43.46418491 12.71521987 38.45848244 11.54477863 33.375 10.375 C32.45976562 10.1584375 31.54453125 9.941875 30.6015625 9.71875 C26.08477352 8.66135142 21.59128728 7.68640508 17 7 C17.66 5.68 18.32 4.36 19 3 C12.73 2.67 6.46 2.34 0 2 C0 1.34 0 0.68 0 0 Z " fill="#CCCBCB" transform="translate(178,0)"/>
<path d="M0 0 C0.33 0.66 0.66 1.32 1 2 C0.07645234 4.13126384 -1.05482031 6.09809949 -2.1875 8.125 C-2.455625 8.74375 -2.72375 9.3625 -3 10 C-2.67 10.66 -2.34 11.32 -2 12 C-1.01 12.33 -0.02 12.66 1 13 C-0.17586585 17.34165851 -1.54389676 21.50216255 -3.14453125 25.7109375 C-6.26164173 34.05169887 -8.68067315 42.18134158 -10 51 C-10.66 50.34 -11.32 49.68 -12 49 C-14.17038477 49.79299706 -14.17038477 49.79299706 -14.6328125 51.84765625 C-14.79523437 52.57855469 -14.95765625 53.30945313 -15.125 54.0625 C-15.29257812 54.79597656 -15.46015625 55.52945313 -15.6328125 56.28515625 C-15.75398438 56.85105469 -15.87515625 57.41695312 -16 58 C-17.44009379 54.09684925 -16.67138412 50.53245922 -15.9375 46.5625 C-15.80174561 45.82459229 -15.66599121 45.08668457 -15.52612305 44.32641602 C-12.46286835 28.53432901 -7.83962309 14.06754701 0 0 Z " fill="#F8F7F7" transform="translate(49,81)"/>
<path d="M0 0 C0.33 0.66 0.66 1.32 1 2 C0.23816406 3.0415625 -0.52367188 4.083125 -1.30859375 5.15625 C-7.51414915 13.737929 -13.13919096 22.38186428 -18.16015625 31.70703125 C-19.63129757 34.3400931 -21.10989649 36.66239535 -23 39 C-24.32 38.67 -25.64 38.34 -27 38 C-21.41776941 20.92494174 -14.57951629 10.30431979 0 0 Z " fill="#F8F6F5" transform="translate(72,55)"/>
<path d="M0 0 C1.27552734 -0.00128906 2.55105469 -0.00257812 3.86523438 -0.00390625 C5.84426758 0.00189453 5.84426758 0.00189453 7.86328125 0.0078125 C9.20768324 0.00424774 10.55208438 0.00034456 11.89648438 -0.00390625 C13.16814453 -0.00261719 14.43980469 -0.00132813 15.75 0 C17.49156372 0.00169189 17.49156372 0.00169189 19.26831055 0.00341797 C22.17578125 0.1328125 22.17578125 0.1328125 25.17578125 1.1328125 C25.17578125 1.7928125 25.17578125 2.4528125 25.17578125 3.1328125 C23.67180786 3.26127563 23.67180786 3.26127563 22.13745117 3.39233398 C18.36708051 3.71446324 14.59674359 4.03698602 10.82641602 4.35961914 C9.20402916 4.49839601 7.58163354 4.63707047 5.95922852 4.77563477 C3.60821172 4.97644625 1.25722743 5.17763455 -1.09375 5.37890625 C-1.85730301 5.44407944 -2.62085602 5.50925262 -3.407547 5.57640076 C-7.64230735 5.9394475 -11.87426999 6.32371034 -16.10546875 6.7265625 C-19.58552512 7.04632623 -23.01360351 7.24600982 -26.51171875 7.1953125 C-27.34058594 7.18628906 -28.16945312 7.17726563 -29.0234375 7.16796875 C-29.61769531 7.15636719 -30.21195313 7.14476563 -30.82421875 7.1328125 C-28.16206044 3.56332683 -24.6526059 3.21606919 -20.51171875 2.5078125 C-19.21621094 2.26804687 -17.92070312 2.02828125 -16.5859375 1.78125 C-15.34457031 1.56726563 -14.10320312 1.35328125 -12.82421875 1.1328125 C-11.43396484 0.86936035 -11.43396484 0.86936035 -10.015625 0.60058594 C-6.63259591 0.1047258 -3.41840788 0.00331126 0 0 Z " fill="#0F0F0F" transform="translate(180.82421875,79.8671875)"/>
<path d="M0 0 C8.25 0 16.5 0 25 0 C28.8125 9.1875 28.8125 9.1875 29.99536133 12.05541992 C31.7421989 16.2333729 33.5050426 20.19853495 36 24 C36.33 22.35 36.66 20.7 37 19 C40.13714671 22.77026702 42.83145931 26.72925481 45.4375 30.875 C48.49440673 35.68885806 51.61197187 40.40976834 55 45 C53.35 44.67 51.7 44.34 50 44 C50.495 45.98 50.495 45.98 51 48 C46.66937857 43.98606021 43.43984433 39.60279583 40.1875 34.6875 C39.66559082 33.90221924 39.14368164 33.11693848 38.60595703 32.30786133 C24 9.90891368 24 9.90891368 24 1 C16.08 1 8.16 1 0 1 C0 0.67 0 0.34 0 0 Z " fill="#838382" transform="translate(17,210)"/>
<path d="M0 0 C3.74011651 2.61808156 5.56151873 4.86687108 6.875 9.3125 C7.45960226 15.27544302 6.37805295 20.88463425 3.875 26.3125 C2.00171351 28.44795127 0.26439356 29.71957096 -2.125 31.3125 C-1.96 30.013125 -1.795 28.71375 -1.625 27.375 C-1.45105236 25.68823498 -1.28455429 24.00068733 -1.125 22.3125 C-1.04507813 21.57 -0.96515625 20.8275 -0.8828125 20.0625 C-0.48292309 13.47608611 -2.88636784 8.92966856 -6.125 3.3125 C-6.455 2.6525 -6.785 1.9925 -7.125 1.3125 C-2.73214286 -0.88392857 -2.73214286 -0.88392857 0 0 Z " fill="#580202" transform="translate(162.125,167.6875)"/>
<path d="M0 0 C0.66 0 1.32 0 2 0 C2.66 1.98 3.32 3.96 4 6 C4.66 6 5.32 6 6 6 C8.93268781 12.05890325 10.58810585 18.09387615 11.75 24.6875 C11.87737549 25.39962646 12.00475098 26.11175293 12.13598633 26.84545898 C12.87164344 31.28775563 13.11799169 35.49861703 13 40 C10.29530835 39.00626122 9.21568367 38.45139476 7.95092773 35.80444336 C7.69770752 34.90862549 7.4444873 34.01280762 7.18359375 33.08984375 C6.89419922 32.09919922 6.60480469 31.10855469 6.30664062 30.08789062 C6.01982422 29.04826172 5.73300781 28.00863281 5.4375 26.9375 C4.85391201 24.90464693 4.26928962 22.87209051 3.68359375 20.83984375 C3.2656958 19.36233643 3.2656958 19.36233643 2.83935547 17.85498047 C1.84614129 14.47666559 0.71953243 11.15768783 -0.46459961 7.84204102 C-1 6 -1 6 -1 3 C-0.34 3 0.32 3 1 3 C0.67 2.01 0.34 1.02 0 0 Z " fill="#F0EEEE" transform="translate(314,91)"/>
<path d="M0 0 C0 0.99 0 1.98 0 3 C-0.66 3 -1.32 3 -2 3 C-2.2784375 4.051875 -2.2784375 4.051875 -2.5625 5.125 C-4.54820026 9.09640051 -7.53933276 11.3073418 -11 14 C-11 13.01 -11 12.02 -11 11 C-11.99 11.66 -12.98 12.32 -14 13 C-15.9896995 13.39013716 -17.99019869 13.73202649 -20 14 C-18.0531727 11.70961494 -15.97933524 10.36533883 -13.375 8.9375 C-9.96685641 7.39458084 -9.96685641 7.39458084 -9 5 C-10.29248657 5.13631836 -10.29248657 5.13631836 -11.61108398 5.27539062 C-14.84801646 5.61454132 -18.08534956 5.94949791 -21.32299805 6.28173828 C-22.71672358 6.42560049 -24.11028423 6.57107044 -25.50366211 6.71826172 C-33.01965176 7.51112177 -40.43380667 8.20109484 -48 8 C-44.45250739 5.63500493 -42.15253239 5.48024784 -37.9375 5 C-33.55058438 4.47193564 -29.20161762 3.91236747 -24.875 3 C-16.67804362 1.27576544 -8.404081 -0.39088749 0 0 Z " fill="#EAE8E9" transform="translate(227,101)"/>
<path d="M0 0 C1.578125 1.671875 1.578125 1.671875 3 4 C1.71536494 15.86398265 -7.25843162 29.1798004 -15 38 C-15.33 36.68 -15.66 35.36 -16 34 C-17.32 34.66 -18.64 35.32 -20 36 C-19.5875 35.36835938 -19.175 34.73671875 -18.75 34.0859375 C-11.67150937 23.12059711 -5.10933984 12.03642558 0 0 Z " fill="#D7D6D5" transform="translate(314,214)"/>
<path d="M0 0 C1.20849609 -0.00257812 2.41699219 -0.00515625 3.66210938 -0.0078125 C5.55993164 0.00378906 5.55993164 0.00378906 7.49609375 0.015625 C8.73423828 0.00789063 9.97238281 0.00015625 11.24804688 -0.0078125 C29.48655674 0.03080795 29.48655674 0.03080795 35.37109375 4.515625 C39.10965897 8.52774378 41.06374767 11.89179022 41.30859375 17.390625 C40.92253983 21.37984881 40.39273997 22.33806998 37.93359375 25.265625 C37.91941406 24.60175781 37.90523437 23.93789062 37.890625 23.25390625 C37.6539322 18.87189081 37.44248058 16.01305252 34.93359375 12.328125 C25.89578494 6.11463144 15.52923652 6.59709603 4.93359375 6.265625 C4.93359375 5.935625 4.93359375 5.605625 4.93359375 5.265625 C5.98160156 5.20503906 7.02960938 5.14445312 8.109375 5.08203125 C9.48829423 4.99760762 10.8671998 4.91296053 12.24609375 4.828125 C12.93638672 4.78880859 13.62667969 4.74949219 14.33789062 4.70898438 C17.4052091 4.51635085 20.00327527 4.24239783 22.93359375 3.265625 C19.51607722 2.12645282 16.89871438 2.15224019 13.296875 2.16796875 C11.99814453 2.17119141 10.69941406 2.17441406 9.36132812 2.17773438 C7.98958267 2.18608969 6.61783788 2.19455463 5.24609375 2.203125 C3.8626318 2.20814165 2.47916812 2.21270427 1.09570312 2.21679688 C-2.2917102 2.22859971 -5.67903658 2.24506481 -9.06640625 2.265625 C-5.56881579 -0.06610197 -4.13400189 0.00852685 0 0 Z " fill="#CBC9CA" transform="translate(186.06640625,46.734375)"/>
<path d="M0 0 C5.63544389 0.50119041 11.19715713 1.15568184 16.77441406 2.10424805 C29.1431593 4.18668843 41.47613448 4.70652257 54 5 C54 5.66 54 6.32 54 7 C14.73518636 9.01944214 14.73518636 9.01944214 0 4 C0 2.68 0 1.36 0 0 Z " fill="#F1F1F1" transform="translate(142,303)"/>
<path d="M0 0 C1.12341797 0.00064453 2.24683594 0.00128906 3.40429688 0.00195312 C8.23303205 0.02777524 12.71365072 0.10740902 17.4375 1.1875 C13.45000262 5.17499738 8.01680229 4.52668929 2.7109375 4.79296875 C-0.71814977 4.69431691 -0.71814977 4.69431691 -3.5625 6.1875 C-4.90265221 6.34332303 -6.25008903 6.43794142 -7.59765625 6.50390625 C-8.40654297 6.54580078 -9.21542969 6.58769531 -10.04882812 6.63085938 C-11.3240332 6.68983398 -11.3240332 6.68983398 -12.625 6.75 C-13.47900391 6.79318359 -14.33300781 6.83636719 -15.21289062 6.88085938 C-17.32922037 6.98726702 -19.44583813 7.08791731 -21.5625 7.1875 C-20.13350833 4.17073981 -19.13045693 2.4950279 -16.16015625 0.88671875 C-10.77002256 -0.16087509 -5.47655822 -0.05990478 0 0 Z " fill="#FAF9F9" transform="translate(193.5625,47.8125)"/>
<path d="M0 0 C0.99 0.33 1.98 0.66 3 1 C2.67 1.99 2.34 2.98 2 4 C-0.625 5.24609375 -0.625 5.24609375 -4 6.4375 C-5.18207031 6.870625 -6.36414063 7.30375 -7.58203125 7.75 C-8.70996094 8.1625 -9.83789062 8.575 -11 9 C-17.02416723 11.39842428 -22.45213756 14.3625408 -27.93359375 17.828125 C-30 19 -30 19 -32 19 C-32.33 17.35 -32.66 15.7 -33 14 C-30.06742967 12.49021482 -27.12819106 10.99389797 -24.1875 9.5 C-22.93743164 8.85611328 -22.93743164 8.85611328 -21.66210938 8.19921875 C-20.45844727 7.59013672 -20.45844727 7.59013672 -19.23046875 6.96875 C-18.49207764 6.59169922 -17.75368652 6.21464844 -16.99291992 5.82617188 C-15 5 -15 5 -12 5 C-12 4.34 -12 3.68 -12 3 C-8.535 2.505 -8.535 2.505 -5 2 C-5 2.66 -5 3.32 -5 4 C-4.34 3.34 -3.68 2.68 -3 2 C-2.01 1.34 -1.02 0.68 0 0 Z " fill="#F4F3F2" transform="translate(139,8)"/>
<path d="M0 0 C1.98 0 3.96 0 6 0 C6 0.66 6 1.32 6 2 C7.051875 1.98259766 7.051875 1.98259766 8.125 1.96484375 C13.86113102 1.91028816 19.32778253 2.14381623 25 3 C24.67 3.99 24.34 4.98 24 6 C14.1 6 4.2 6 -6 6 C-6.33 5.01 -6.66 4.02 -7 3 C-3.535 2.505 -3.535 2.505 0 2 C0 1.34 0 0.68 0 0 Z " fill="#F4F3F2" transform="translate(172,0)"/>
<path d="M0 0 C2.6617678 0.38539109 5.32818418 0.68828815 8 1 C-1.13042844 7.08695229 -14.11248867 5.22823571 -24.625 5.125 C-26.41015123 5.11495103 -28.19530794 5.10582857 -29.98046875 5.09765625 C-34.32044931 5.0757925 -38.66016332 5.04136815 -43 5 C-43 4.67 -43 4.34 -43 4 C-32.44 4 -21.88 4 -11 4 C-11 3.34 -11 2.68 -11 2 C-18.92 2 -26.84 2 -35 2 C-35 1.67 -35 1.34 -35 1 C-34.27409668 0.97494385 -33.54819336 0.9498877 -32.80029297 0.92407227 C-29.49170554 0.80758759 -26.18336624 0.68509986 -22.875 0.5625 C-21.73289063 0.52318359 -20.59078125 0.48386719 -19.4140625 0.44335938 C-17.75117188 0.38051758 -17.75117188 0.38051758 -16.0546875 0.31640625 C-15.03874512 0.27974854 -14.02280273 0.24309082 -12.97607422 0.20532227 C-1.9000093 -0.55882627 -1.9000093 -0.55882627 0 0 Z " fill="#B9B8B7" transform="translate(207,306)"/>
<path d="M0 0 C5.33890179 0.5297515 9.10993729 2.41012278 13.6875 5 C18.6913937 7.82624837 18.6913937 7.82624837 24 10 C24.33 11.65 24.66 13.3 25 15 C18.72983346 14.57589059 14.46167141 12.40330458 9.125 9.1875 C8.35414063 8.74857422 7.58328125 8.30964844 6.7890625 7.85742188 C5.69078125 7.20676758 5.69078125 7.20676758 4.5703125 6.54296875 C3.90789551 6.15133545 3.24547852 5.75970215 2.56298828 5.35620117 C0.64181275 3.68920178 0.3720543 2.47412828 0 0 Z " fill="#F0EEEE" transform="translate(238,15)"/>
<path d="M0 0 C-25.8148131 12.66797742 -25.8148131 12.66797742 -40 10 C-36.66838049 6.66838049 -32.08123824 6.07510084 -27.625 4.8125 C-26.6659375 4.52697266 -25.706875 4.24144531 -24.71875 3.94726562 C-23.79320312 3.68236328 -22.86765625 3.41746094 -21.9140625 3.14453125 C-21.0679541 2.90065674 -20.2218457 2.65678223 -19.35009766 2.40551758 C-16.83758112 1.97197405 -15.41666182 2.31878688 -13 3 C-10.4705351 2.22006527 -10.4705351 2.22006527 -7.9375 1 C-3.3253012 -1.10843373 -3.3253012 -1.10843373 0 0 Z " fill="#B0AFAE" transform="translate(245,297)"/>
<path d="M0 0 C0.96679688 0.00322266 1.93359375 0.00644531 2.9296875 0.00976562 C4.40308594 0.02233398 4.40308594 0.02233398 5.90625 0.03515625 C6.91945312 0.03966797 7.93265625 0.04417969 8.9765625 0.04882812 C11.45318827 0.06051032 13.92968657 0.07689043 16.40625 0.09765625 C16.40625 0.42765625 16.40625 0.75765625 16.40625 1.09765625 C12.42368895 1.67448327 8.44013487 2.24384306 4.45556641 2.80664062 C3.10339379 2.99865751 1.75149677 3.19262654 0.39990234 3.38867188 C-6.63628834 4.40795744 -13.4768038 5.38814385 -20.59375 5.09765625 C-20.59375 4.76765625 -20.59375 4.43765625 -20.59375 4.09765625 C-21.3050708 4.07783691 -22.0163916 4.05801758 -22.74926758 4.03759766 C-25.96863816 3.94240758 -29.1873545 3.83270396 -32.40625 3.72265625 C-33.52580078 3.69171875 -34.64535156 3.66078125 -35.79882812 3.62890625 C-36.87197266 3.59023437 -37.94511719 3.5515625 -39.05078125 3.51171875 C-40.04053955 3.48029785 -41.03029785 3.44887695 -42.05004883 3.41650391 C-44.59375 3.09765625 -44.59375 3.09765625 -47.59375 1.09765625 C-46.60568359 1.10289307 -45.61761719 1.10812988 -44.59960938 1.11352539 C-40.9020276 1.13174946 -37.20444972 1.14315135 -33.50683594 1.15258789 C-31.91242808 1.15758856 -30.31802475 1.16439126 -28.72363281 1.1730957 C-26.41991046 1.18534955 -24.11624922 1.19092735 -21.8125 1.1953125 C-20.75887268 1.20305443 -20.75887268 1.20305443 -19.68395996 1.21095276 C-16.21875972 1.2113376 -12.86690554 1.05289963 -9.4296875 0.59765625 C-6.22195896 0.17954092 -3.22584541 -0.01920146 0 0 Z " fill="#B6B5B5" transform="translate(199.59375,91.90234375)"/>
<path d="M0 0 C0.33 0.66 0.66 1.32 1 2 C0.07645234 4.13126384 -1.05482031 6.09809949 -2.1875 8.125 C-2.455625 8.74375 -2.72375 9.3625 -3 10 C-2.67 10.66 -2.34 11.32 -2 12 C-1.01 12.33 -0.02 12.66 1 13 C0.40138258 15.35171131 -0.26924352 17.6859378 -1 20 C-1.66 20.33 -2.32 20.66 -3 21 C-3 20.34 -3 19.68 -3 19 C-4.32 19.33 -5.64 19.66 -7 20 C-6.938125 20.721875 -6.87625 21.44375 -6.8125 22.1875 C-7 25 -7 25 -8.375 27.15625 C-10.43570159 30.76247778 -11.26369935 34.29019288 -12.1875 38.3125 C-12.36474609 39.05306641 -12.54199219 39.79363281 -12.72460938 40.55664062 C-13.15730953 42.36930342 -13.57970716 44.18442027 -14 46 C-14.33 46 -14.66 46 -15 46 C-14.42113398 39.40625022 -13.25422554 33.29841573 -11.4375 26.9375 C-11.18081543 26.03298096 -10.92413086 25.12846191 -10.65966797 24.1965332 C-8.09268401 15.59070053 -4.36040204 7.82437625 0 0 Z " fill="#C2C1C0" transform="translate(49,81)"/>
<path d="M0 0 C0.99 0 1.98 0 3 0 C2.52269189 5.82618947 0.80741399 9.88664965 -2.0625 14.9375 C-2.43955078 15.62134766 -2.81660156 16.30519531 -3.20507812 17.00976562 C-4.12700942 18.67857796 -5.06215512 20.34007864 -6 22 C-7.65 21.67 -9.3 21.34 -11 21 C-9.42632842 15.020048 -6.23347467 10.19166035 -3 5 C-2.50371094 4.07316406 -2.00742187 3.14632812 -1.49609375 2.19140625 C-1.00238281 1.46824219 -0.50867187 0.74507813 0 0 Z " fill="#F4F3F2" transform="translate(56,72)"/>
<path d="M0 0 C2.35424675 -0.02726927 4.70816962 -0.04696719 7.0625 -0.0625 C8.37347656 -0.07410156 9.68445313 -0.08570313 11.03515625 -0.09765625 C14.8163519 -0.00452335 18.27920707 0.38551274 22 1 C22 1.66 22 2.32 22 3 C24.97 3.33 27.94 3.66 31 4 C31.33 5.65 31.66 7.3 32 9 C26.9697924 8.47462276 21.98114761 7.89405214 17 7 C17.66 5.68 18.32 4.36 19 3 C12.73 2.67 6.46 2.34 0 2 C0 1.34 0 0.68 0 0 Z " fill="#D5D4D3" transform="translate(178,0)"/>
<path d="M0 0 C0.66 0.33 1.32 0.66 2 1 C-2.06734974 5.59216906 -6.56385928 8.2167907 -12 11 C-5.97484682 14.50554367 -1.90871445 15.49055961 5 15 C5.99 15 6.98 15 8 15 C6.40633481 16.89530529 5.47509325 17.8959855 3.01953125 18.43359375 C-2.96792556 18.44419102 -6.90295545 17.05409957 -12 14 C-13.33319793 13.24975934 -14.66652367 12.49974573 -16 11.75 C-16.99 11.1725 -17.98 10.595 -19 10 C-19 12.31 -19 14.62 -19 17 C-19.33 17 -19.66 17 -20 17 C-20 11.72 -20 6.44 -20 1 C-19.34 1 -18.68 1 -18 1 C-18 3.64 -18 6.28 -18 9 C-11.63048268 7.50395679 -6.12599228 6.18173054 -1 2 C-0.67 1.34 -0.34 0.68 0 0 Z " fill="#909090" transform="translate(146,168)"/>
<path d="M0 0 C0 0.66 0 1.32 0 2 C-5.94 2.33 -11.88 2.66 -18 3 C-18 4.98 -18 6.96 -18 9 C-17.01 9.33 -16.02 9.66 -15 10 C-15.99 10 -16.98 10 -18 10 C-17.67 12.31 -17.34 14.62 -17 17 C-11.67634076 17.31941955 -8.64976276 16.53623423 -4 14 C-3.01 14 -2.02 14 -1 14 C-4.90407501 18.32236876 -7.43215956 18.99341306 -13.0625 19.3125 C-17 19 -17 19 -18.703125 17.40234375 C-20.38465119 14.28746843 -20.5113512 11.77297603 -20.6875 8.25 C-20.75324219 7.07953125 -20.81898438 5.9090625 -20.88671875 4.703125 C-20.92410156 3.81109375 -20.96148437 2.9190625 -21 2 C-14.11997829 -0.62096065 -7.27823961 -0.18170362 0 0 Z " fill="#A0A0A0" transform="translate(291,167)"/>
<path d="M0 0 C3.90282751 1.74954337 6.17436678 3.43564233 8.1875 7.25 C10.17335191 13.97134493 8.89434229 20.72362404 6 27 C4.12671351 29.13545127 2.38939356 30.40707096 0 32 C1.07401108 29.08482708 1.77810176 27.22189824 4 25 C4.25458837 22.38602872 4.37969429 19.92780869 4.375 17.3125 C4.37628906 16.58659668 4.37757813 15.86069336 4.37890625 15.11279297 C4.26772073 9.51434932 3.34334429 6.38813938 0 2 C0 1.34 0 0.68 0 0 Z " fill="#9A1919" transform="translate(160,167)"/>
<path d="M0 0 C2.475 0.495 2.475 0.495 5 1 C8.44419134 14.6332574 8.44419134 14.6332574 8 21 C6.140625 20.42578125 6.140625 20.42578125 4 19 C2.734375 15.91796875 2.734375 15.91796875 1.75 12.1875 C1.41484375 10.96417969 1.0796875 9.74085937 0.734375 8.48046875 C0.10621814 5.50340617 -0.16108974 3.02043271 0 0 Z " fill="#ECEBEB" transform="translate(319,110)"/>
<path d="M0 0 C0.66 0 1.32 0 2 0 C2 2.31 2 4.62 2 7 C7.94 7 13.88 7 20 7 C20 4.69 20 2.38 20 0 C20.66 0 21.32 0 22 0 C22.11138159 5.45769811 21.91657981 10.61509359 21 16 C20.67 16 20.34 16 20 16 C20 13.36 20 10.72 20 8 C18.97326172 8.24556641 18.97326172 8.24556641 17.92578125 8.49609375 C14.6256722 9.06447034 11.53445931 9.09630767 8.1875 9.0625 C7.02605469 9.05347656 5.86460937 9.04445312 4.66796875 9.03515625 C3.78753906 9.02355469 2.90710938 9.01195312 2 9 C2 11.97 2 14.94 2 18 C1.34 18 0.68 18 0 18 C0 12.06 0 6.12 0 0 Z " fill="#A09F9F" transform="translate(235,168)"/>
<path d="M0 0 C0 3.27035387 -0.13357224 4.3635433 -2 7 C-4.31179714 8.28916006 -6.44337397 9.32449716 -8.875 10.3125 C-9.50019531 10.58900391 -10.12539062 10.86550781 -10.76953125 11.15039062 C-13.49312347 12.29337806 -15.48149242 13.07040438 -18.4453125 12.66796875 C-18.95835937 12.44753906 -19.47140625 12.22710937 -20 12 C-19.34 10.68 -18.68 9.36 -18 8 C-17.34 8 -16.68 8 -16 8 C-15.67 7.34 -15.34 6.68 -15 6 C-11.98665458 5.14097168 -8.94827691 4.52523911 -5.8828125 3.87890625 C-3.00661704 3.00201739 -1.84176948 2.31187148 0 0 Z " fill="#F4F2F2" transform="translate(216,110)"/>
<path d="M0 0 C0.84256348 0.15847412 1.68512695 0.31694824 2.55322266 0.48022461 C6.11378621 1.01715901 9.55000344 1.20876079 13.1484375 1.31640625 C13.80582916 1.33718735 14.46322083 1.35796844 15.14053345 1.37937927 C17.21859362 1.44420753 19.29676856 1.50344564 21.375 1.5625 C22.79298011 1.60574888 24.21094907 1.64936509 25.62890625 1.69335938 C29.0858188 1.79981918 32.54285706 1.90126984 36 2 C36 2.33 36 2.66 36 3 C31.04657734 3.99550706 26.34489309 4.13097403 21.3203125 4.09765625 C20.50754852 4.0962413 19.69478455 4.09482635 18.85739136 4.09336853 C16.27988899 4.08780335 13.7024758 4.0752574 11.125 4.0625 C9.36979293 4.0574805 7.61458448 4.05291838 5.859375 4.04882812 C1.57288268 4.03784534 -2.71354357 4.02060492 -7 4 C-7 3.34 -7 2.68 -7 2 C-3.535 1.505 -3.535 1.505 0 1 C0 0.67 0 0.34 0 0 Z " fill="#F6F5F5" transform="translate(149,93)"/>
<path d="M0 0 C5.10362717 7.65544076 7.09198724 21.6682353 5.515625 30.80859375 C5.34546875 31.53175781 5.1753125 32.25492188 5 33 C4.01 31.68 3.02 30.36 2 29 C1.34 30.32 0.68 31.64 0 33 C-0.66 27.39 -1.32 21.78 -2 16 C0.475 17.98 0.475 17.98 3 20 C2.7834375 18.89140625 2.566875 17.7828125 2.34375 16.640625 C2.06230682 15.17712047 1.7810675 13.71357673 1.5 12.25 C1.35691406 11.52039063 1.21382813 10.79078125 1.06640625 10.0390625 C0.41111121 6.60656468 0 3.50830509 0 0 Z " fill="#BBBABA" transform="translate(324,111)"/>
<path d="M0 0 C0.66 0.99 1.32 1.98 2 3 C-1.96460729 3.43338279 -5.92985116 3.86035236 -9.89575195 4.28173828 C-11.89765187 4.49574026 -13.89902868 4.71461773 -15.90039062 4.93359375 C-22.64213939 5.64682662 -29.22067789 6.17859905 -36 6 C-32.45250739 3.63500493 -30.15253239 3.48024784 -25.9375 3 C-21.43359436 2.46465763 -16.99477767 1.85534802 -12.5625 0.875 C-8.24125274 -0.02676278 -4.41193152 -0.39392246 0 0 Z " fill="#BFBEBE" transform="translate(215,103)"/>
<path d="M0 0 C0.99 0.33 1.98 0.66 3 1 C3.3125 3.25 3.3125 3.25 3 6 C0.49950283 8.36533516 -2.13765305 10.0917687 -5 12 C-1.7 12.66 1.6 13.32 5 14 C5 14.66 5 15.32 5 16 C-0.39916688 16.08570106 -5.5588217 15.88971256 -10.9140625 15.22265625 C-13.61638282 14.93420633 -16.28543153 14.93039568 -19 15 C-18.67 14.01 -18.34 13.02 -18 12 C-16.4221875 11.7834375 -16.4221875 11.7834375 -14.8125 11.5625 C-13.554375 11.376875 -12.29625 11.19125 -11 11 C-10.154375 10.896875 -9.30875 10.79375 -8.4375 10.6875 C-5.06313349 9.7357556 -2.73307462 8.17403663 0 6 C1.05081138 3.97581668 1.05081138 3.97581668 1 2 C0.67 1.34 0.34 0.68 0 0 Z " fill="#808080" transform="translate(98,171)"/>
<path d="M0 0 C0 0.66 0 1.32 0 2 C-3.12202006 3.50626117 -6.24808399 5.00393243 -9.375 6.5 C-10.26445313 6.92925781 -11.15390625 7.35851562 -12.0703125 7.80078125 C-12.92109375 8.20683594 -13.771875 8.61289062 -14.6484375 9.03125 C-15.43395996 9.40830078 -16.21948242 9.78535156 -17.02880859 10.17382812 C-19 11 -19 11 -21 11 C-20.67 12.98 -20.34 14.96 -20 17 C-23.75 20 -23.75 20 -26 20 C-25.67 18.68 -25.34 17.36 -25 16 C-27.92879371 16.62759865 -30.36095629 17.58622659 -33 19 C-29.30973499 15.01507504 -25.55543159 12.22900468 -20.875 9.5 C-20.21991455 9.11271729 -19.5648291 8.72543457 -18.88989258 8.32641602 C-4.5883972 0 -4.5883972 0 0 0 Z " fill="#BEBDBC" transform="translate(127,11)"/>
<path d="M0 0 C1.11632812 0.00902344 2.23265625 0.01804687 3.3828125 0.02734375 C4.61644531 0.04474609 4.61644531 0.04474609 5.875 0.0625 C-3.69248888 5.38242595 -15.74901266 4.31844102 -26.375 4.1875 C-27.81379577 4.17743849 -29.25259845 4.16831831 -30.69140625 4.16015625 C-34.16941753 4.1384206 -37.64716245 4.10407033 -41.125 4.0625 C-40.795 3.4025 -40.465 2.7425 -40.125 2.0625 C-39.48062988 2.03744385 -38.83625977 2.0123877 -38.17236328 1.98657227 C-35.19811076 1.86914654 -32.22406429 1.747097 -29.25 1.625 C-27.73019531 1.56602539 -27.73019531 1.56602539 -26.1796875 1.50585938 C-20.54815739 1.27121229 -14.978976 0.87099111 -9.37548828 0.26977539 C-6.24492024 -0.01855747 -3.14199788 -0.03342551 0 0 Z " fill="#A5A3A4" transform="translate(178.125,66.9375)"/>
<path d="M0 0 C7.3061184 1.94875824 13.95933147 4.63061149 20.75 7.9375 C21.65621094 8.36740234 22.56242187 8.79730469 23.49609375 9.24023438 C28.25884945 11.53122416 32.69658684 13.92918697 37 17 C36.01 17.495 36.01 17.495 35 18 C33.27587891 17.30322266 33.27587891 17.30322266 31.2265625 16.1640625 C30.4840625 15.75929688 29.7415625 15.35453125 28.9765625 14.9375 C27.81253906 14.2878125 27.81253906 14.2878125 26.625 13.625 C25.09857454 12.77983154 23.56999346 11.93854206 22.0390625 11.1015625 C21.36053223 10.72338379 20.68200195 10.34520508 19.98291016 9.95556641 C17.99841933 8.99923828 16.15006528 8.45356225 14 8 C14.33 9.32 14.66 10.64 15 12 C12.5625 11.3125 12.5625 11.3125 10 10 C9.1875 7.375 9.1875 7.375 9 5 C6.03 4.01 3.06 3.02 0 2 C0 1.34 0 0.68 0 0 Z " fill="#ABAAA9" transform="translate(224,7)"/>
<path d="M0 0 C1.05960938 0.00676758 1.05960938 0.00676758 2.140625 0.01367188 C3.88545275 0.02546125 5.630237 0.04339676 7.375 0.0625 C7.375 0.3925 7.375 0.7225 7.375 1.0625 C2.755 1.3925 -1.865 1.7225 -6.625 2.0625 C-6.625 4.0425 -6.625 6.0225 -6.625 8.0625 C-5.635 8.3925 -4.645 8.7225 -3.625 9.0625 C-4.945 9.0625 -6.265 9.0625 -7.625 9.0625 C-6.965 11.0425 -6.305 13.0225 -5.625 15.0625 C-0.68132546 16.26827428 2.58362412 15.6915678 7.375 14.0625 C5.32204566 17.14193151 4.71765205 17.85543121 1.375 19.0625 C-2.18300524 19.50725065 -3.88051819 19.63308825 -6.765625 17.421875 C-9.09042443 14.47191942 -9.21052437 12.65647663 -9.375 8.9375 C-9.43171875 7.88304687 -9.4884375 6.82859375 -9.546875 5.7421875 C-9.59234003 4.18273692 -9.625 2.62261319 -9.625 1.0625 C-6.55966836 -0.47016582 -3.35745728 -0.04026471 0 0 Z " fill="#9E9D9E" transform="translate(62.625,167.9375)"/>
<path d="M0 0 C0.495 1.485 0.495 1.485 1 3 C-2.33270874 3.33977725 -5.66624786 3.67063063 -9 4 C-10.40185547 4.14308594 -10.40185547 4.14308594 -11.83203125 4.2890625 C-17.25318323 4.81980465 -22.55322171 5.1027694 -28 5 C-28 4.67 -28 4.34 -28 4 C-30.97 3.505 -30.97 3.505 -34 3 C-34 2.67 -34 2.34 -34 2 C-29.83373537 1.6615135 -25.66693347 1.33014248 -21.5 1 C-19.74042969 0.85691406 -19.74042969 0.85691406 -17.9453125 0.7109375 C-11.94254224 0.2388095 -6.02127983 -0.11923326 0 0 Z " fill="#B7B6B6" transform="translate(194,84)"/>
<path d="M0 0 C0.66 0 1.32 0 2 0 C2.02578125 0.65226562 2.0515625 1.30453125 2.078125 1.9765625 C2.46282894 7.90450047 3.48945389 11.08523545 7 16 C6.75 18.375 6.75 18.375 6 20 C2.60054067 18.59332717 0.89229935 17.16276662 -1 14 C-1.328125 11.0546875 -1.328125 11.0546875 -1.25 7.875 C-1.23453125 6.82054688 -1.2190625 5.76609375 -1.203125 4.6796875 C-1 2 -1 2 0 0 Z " fill="#E8E6E6" transform="translate(128,105)"/>
<path d="M0 0 C-0.26806641 1.89135742 -0.26806641 1.89135742 -1 4 C-2.62646484 5.02075195 -2.62646484 5.02075195 -4.7109375 5.73828125 C-5.83628906 6.13176758 -5.83628906 6.13176758 -6.984375 6.53320312 C-7.77328125 6.79037109 -8.5621875 7.04753906 -9.375 7.3125 C-10.15617188 7.58900391 -10.93734375 7.86550781 -11.7421875 8.15039062 C-17.58795107 10.13734964 -17.58795107 10.13734964 -21 9 C-18.70500056 5.55750085 -17.03348928 5.12741347 -13.23046875 3.83203125 C-10.24977426 2.72014346 -7.53374214 1.22375828 -4.76171875 -0.328125 C-3 -1 -3 -1 0 0 Z " fill="#DBDBDB" transform="translate(250,291)"/>
<path d="M0 0 C0.66 0.33 1.32 0.66 2 1 C-1.3 4.3 -4.6 7.6 -8 11 C-7.34 11.33 -6.68 11.66 -6 12 C-5.7525 11.38125 -5.505 10.7625 -5.25 10.125 C-3.79371361 7.64931313 -2.62187494 7.04874998 0 6 C0.33 7.32 0.66 8.64 1 10 C4.96 10 8.92 10 13 10 C13 10.33 13 10.66 13 11 C5.27279225 12.23107719 -2.1683819 13.2700558 -10 13 C-9.48223379 8.89552608 -7.35372556 7.04300477 -4.4375 4.25 C-3.61121094 3.45078125 -2.78492188 2.6515625 -1.93359375 1.828125 C-1.29550781 1.22484375 -0.65742188 0.6215625 0 0 Z " fill="#D1CFCF" transform="translate(136,63)"/>
<path d="M0 0 C6.41753653 1.21085595 6.41753653 1.21085595 8.9375 4.625 C10.26285304 8.83494494 10.42638734 11.59399751 10 16 C8.4765625 18.2421875 8.4765625 18.2421875 7 20 C6.96132812 19.03900391 6.96132812 19.03900391 6.921875 18.05859375 C6.52155373 11.95369442 5.52879454 8.0258589 2 3 C1.34 2.67 0.68 2.34 0 2 C0 1.34 0 0.68 0 0 Z " fill="#E6E5E5" transform="translate(217,52)"/>
<path d="M0 0 C6.72143599 1.1762513 9.92565941 5.97429054 14 11 C13.01 11.99 12.02 12.98 11 14 C9.99403703 13.0479279 8.99538437 12.08812654 8 11.125 C7.443125 10.59132813 6.88625 10.05765625 6.3125 9.5078125 C5 8 5 8 5 6 C3.68 5.67 2.36 5.34 1 5 C0.67 3.35 0.34 1.7 0 0 Z " fill="#E4E3E3" transform="translate(67,254)"/>
<path d="M0 0 C0.66 0.33 1.32 0.66 2 1 C1.34 1.66 0.68 2.32 0 3 C-0.2784375 3.78761719 -0.556875 4.57523438 -0.84375 5.38671875 C-2.23272712 8.52599475 -3.7652274 9.77473925 -6.5 11.8125 C-7.2940625 12.41707031 -8.088125 13.02164063 -8.90625 13.64453125 C-11 15 -11 15 -13 15 C-13 14.01 -13 13.02 -13 12 C-12.34 12 -11.68 12 -11 12 C-10.814375 11.29875 -10.62875 10.5975 -10.4375 9.875 C-8.23435556 5.46871112 -4.40998511 2.20499255 0 0 Z " fill="#F1F0EF" transform="translate(102,25)"/>
<path d="M0 0 C0.33 0.66 0.66 1.32 1 2 C0.28972656 2.18175781 -0.42054688 2.36351562 -1.15234375 2.55078125 C-2.07144531 2.80214844 -2.99054688 3.05351563 -3.9375 3.3125 C-5.31228516 3.67794922 -5.31228516 3.67794922 -6.71484375 4.05078125 C-7.46894531 4.36402344 -8.22304687 4.67726563 -9 5 C-9.33 5.99 -9.66 6.98 -10 8 C-9.34 8.33 -8.68 8.66 -8 9 C-9.65 9.33 -11.3 9.66 -13 10 C-13.66 9.01 -14.32 8.02 -15 7 C-15.45375 7.495 -15.9075 7.99 -16.375 8.5 C-18 10 -18 10 -20 10 C-20 9.34 -20 8.68 -20 8 C-21.98 8.33 -23.96 8.66 -26 9 C-23.5727811 6.5727811 -21.84355977 6.20816962 -18.5546875 5.2734375 C-17.47832031 4.9640625 -16.40195313 4.6546875 -15.29296875 4.3359375 C-14.16503906 4.01882812 -13.03710938 3.70171875 -11.875 3.375 C-10.73933594 3.05015625 -9.60367188 2.7253125 -8.43359375 2.390625 C-5.6240089 1.58788647 -2.81282781 0.79128572 0 0 Z " fill="#B6B5B4" transform="translate(154,2)"/>
<path d="M0 0 C1.60875 1.299375 1.60875 1.299375 3.25 2.625 C8.43223718 6.5396396 14.1417293 9.24661277 20 12 C20 12.33 20 12.66 20 13 C15.39642351 13.46035765 13.13608552 12.13723761 9.375 9.5625 C5.3986977 6.85963 5.3986977 6.85963 1 5 C1 8.96 1 12.92 1 17 C0.34 17 -0.32 17 -1 17 C-0.67 11.39 -0.34 5.78 0 0 Z " fill="#9B9B9B" transform="translate(301,169)"/>
<path d="M0 0 C4.35486002 5.22583202 6.31408515 8.09012671 6 15 C3.13994749 14.7041325 2.14428257 14.15920836 0.1875 12 C-1.47354074 7.80368655 -0.78886754 4.36253252 0 0 Z " fill="#DEDDDD" transform="translate(54,229)"/>
<path d="M0 0 C1.32 0 2.64 0 4 0 C3.58846263 4.97093824 3.20399168 9.44508386 1 14 C0.01 13.67 -0.98 13.34 -2 13 C-2.125 7.25 -2.125 7.25 -1 5 C-0.64386903 3.33805547 -0.30791692 1.671549 0 0 Z " fill="#EFEEED" transform="translate(42,100)"/>
<path d="M0 0 C-0.33 0.99 -0.66 1.98 -1 3 C-5.81087497 4.54926482 -9.91996441 5.25400178 -15 5 C-15.33 4.01 -15.66 3.02 -16 2 C-10.93064703 -0.37625921 -5.42626849 -1.80875616 0 0 Z " fill="#FBFAFA" transform="translate(159,5)"/>
<path d="M0 0 C7.425 0.99 7.425 0.99 15 2 C15 2.33 15 2.66 15 3 C13.02 3 11.04 3 9 3 C8.67 3.99 8.34 4.98 8 6 C8.99 6.66 9.98 7.32 11 8 C3 7.07692308 3 7.07692308 0 5 C-0.33 4.01 -0.66 3.02 -1 2 C-0.67 1.34 -0.34 0.68 0 0 Z " fill="#E0DEDE" transform="translate(134,121)"/>
<path d="M0 0 C-1.98 0.99 -1.98 0.99 -4 2 C-2.35 2 -0.7 2 1 2 C-1.86916305 4.86916305 -5.0856558 5.49139278 -9 6 C-12.3708043 5.88029814 -15.66663256 5.50546965 -19 5 C-16.4156782 2.4156782 -14.10624423 1.89598837 -10.625 0.8125 C-9.48289063 0.44769531 -8.34078125 0.08289063 -7.1640625 -0.29296875 C-4.18525347 -0.95860385 -2.79128097 -1.07938697 0 0 Z " fill="#BAB9B8" transform="translate(224,302)"/>
<path d="M0 0 C6.44070471 -0.10655578 12.62641289 0.03794912 19 1 C18.67 1.99 18.34 2.98 18 4 C12.39 3.67 6.78 3.34 1 3 C0.67 2.01 0.34 1.02 0 0 Z " fill="#FDFCFB" transform="translate(178,2)"/>
<path d="M0 0 C0.33 0.99 0.66 1.98 1 3 C1.99 3 2.98 3 4 3 C3.40072174 6.35595828 2.15377564 8.37801226 0 11 C-0.66 9.68 -1.32 8.36 -2 7 C-2.4125 7.7425 -2.825 8.485 -3.25 9.25 C-4.93745618 11.90171685 -6.70872089 13.86674014 -9 16 C-7.51637716 9.73581469 -3.75837844 5.08486495 0 0 Z " fill="#DDDCDB" transform="translate(59,65)"/>
<path d="M0 0 C2.02196167 2.02196167 2.67551358 3.25864486 3.6875 5.875 C3.95949219 6.55304688 4.23148437 7.23109375 4.51171875 7.9296875 C5.07336741 10.31107782 4.76694846 11.70430191 4 14 C2.68 13.67 1.36 13.34 0 13 C-0.33 13.66 -0.66 14.32 -1 15 C-1.33 12.36 -1.66 9.72 -2 7 C-1.34 6.67 -0.68 6.34 0 6 C0 4.02 0 2.04 0 0 Z " fill="#C1C0BF" transform="translate(319,97)"/>
<path d="M0 0 C1.23701372 3.71104116 0.42126979 4.48862758 -1 8 C-0.979375 8.825 -0.95875 9.65 -0.9375 10.5 C-1 13 -1 13 -2.3671875 15.13671875 C-4.42907233 18.75241632 -5.26175383 22.28172195 -6.1875 26.3125 C-6.36474609 27.05306641 -6.54199219 27.79363281 -6.72460938 28.55664062 C-7.15730953 30.36930342 -7.57970716 32.18442027 -8 34 C-8.33 34 -8.66 34 -9 34 C-8.42878746 27.09608542 -7.02578729 20.82124529 -5.0625 14.1875 C-4.79759766 13.26001953 -4.53269531 12.33253906 -4.25976562 11.37695312 C-3.09988059 7.38499149 -1.95706266 3.68205632 0 0 Z " fill="#908F8E" transform="translate(43,93)"/>
<path d="M0 0 C7.26 0.33 14.52 0.66 22 1 C22 1.33 22 1.66 22 2 C17.38 2 12.76 2 8 2 C8 2.66 8 3.32 8 4 C5.03 4 2.06 4 -1 4 C-1.33 3.34 -1.66 2.68 -2 2 C-1.34 2 -0.68 2 0 2 C0 1.34 0 0.68 0 0 Z " fill="#FCFBFB" transform="translate(143,124)"/>
<path d="M0 0 C-0.99 0.495 -0.99 0.495 -2 1 C-2 1.99 -2 2.98 -2 4 C-5.4019487 6.09350689 -8.05272412 6.17942163 -12 6 C-11.67 4.35 -11.34 2.7 -11 1 C-3.57142857 -1.42857143 -3.57142857 -1.42857143 0 0 Z " fill="#F6F4F4" transform="translate(164,54)"/>
<path d="M0 0 C-0.33 1.32 -0.66 2.64 -1 4 C-2.1446875 3.938125 -2.1446875 3.938125 -3.3125 3.875 C-6.22718416 3.77919176 -6.22718416 3.77919176 -9 6 C-11.1875 5.625 -11.1875 5.625 -13 5 C-8.7797731 -0.27528362 -6.38501231 -0.54110274 0 0 Z " fill="#FBF8F9" transform="translate(185,49)"/>
<path d="M0 0 C3.3 0.99 6.6 1.98 10 3 C10 4.32 10 5.64 10 7 C5.55129785 7.39253254 2.85756507 6.15305957 -1 4 C-0.67 2.68 -0.34 1.36 0 0 Z " fill="#F6F5F4" transform="translate(225,9)"/>
<path d="M0 0 C5.61 0 11.22 0 17 0 C17 0.33 17 0.66 17 1 C11.16200408 2.69832609 6.06892629 3.25287193 0 3 C-0.33 4.32 -0.66 5.64 -1 7 C-1.125 2.25 -1.125 2.25 0 0 Z " fill="#464545" transform="translate(56,175)"/>
<path d="M0 0 C0 2.97 0 5.94 0 9 C-0.66 8.34 -1.32 7.68 -2 7 C-4.17038477 7.79299706 -4.17038477 7.79299706 -4.6328125 9.84765625 C-4.79523437 10.57855469 -4.95765625 11.30945313 -5.125 12.0625 C-5.29257812 12.79597656 -5.46015625 13.52945313 -5.6328125 14.28515625 C-5.75398438 14.85105469 -5.87515625 15.41695312 -6 16 C-7.21059679 11.82809721 -7.28311901 8.17441384 -6 4 C-2 0 -2 0 0 0 Z " fill="#D0CFCE" transform="translate(39,123)"/>
<path d="M0 0 C-0.33 0.66 -0.66 1.32 -1 2 C-6.5429439 3.45866945 -12.31323109 3.09106925 -18 3 C-17.67 2.34 -17.34 1.68 -17 1 C-14.19921875 0.33203125 -14.19921875 0.33203125 -10.6875 -0.1875 C-8.96080078 -0.45626953 -8.96080078 -0.45626953 -7.19921875 -0.73046875 C-4.38921355 -0.96720911 -2.62463477 -0.91376173 0 0 Z " fill="#464545" transform="translate(182,108)"/>
<path d="M0 0 C3 1 3 1 5 4 C5.07905064 6.33199388 5.08798769 8.66832622 5 11 C1.125 9.25 1.125 9.25 0 7 C-0.04022391 4.6670134 -0.04320247 2.33293334 0 0 Z " fill="#F7F6F5" transform="translate(322,120)"/>
<path d="M0 0 C4.875 4.75 4.875 4.75 6 7 C4.35 6.67 2.7 6.34 1 6 C1.33 7.32 1.66 8.64 2 10 C-0.5 7.6875 -0.5 7.6875 -3 5 C-3 4.01 -3 3.02 -3 2 C-2.34 2 -1.68 2 -1 2 C-0.67 1.34 -0.34 0.68 0 0 Z " fill="#C5C4C4" transform="translate(66,248)"/>
<path d="M0 0 C1.093125 0.28875 2.18625 0.5775 3.3125 0.875 C3.6425 1.535 3.9725 2.195 4.3125 2.875 C2.0025 2.545 -0.3075 2.215 -2.6875 1.875 C-2.914375 2.473125 -3.14125 3.07125 -3.375 3.6875 C-5.02561133 6.43851888 -6.8847081 7.39984637 -9.6875 8.875 C-7.8580442 3.38663259 -6.22491578 -0.21101409 0 0 Z " fill="#696869" transform="translate(213.6875,167.125)"/>
<path d="M0 0 C0.33 1.32 0.66 2.64 1 4 C-5.6 4 -12.2 4 -19 4 C-19 3.67 -19 3.34 -19 3 C-12.73 2.01 -6.46 1.02 0 0 Z " fill="#CDCCCC" transform="translate(206,82)"/>
<path d="M0 0 C5.94 0.66 11.88 1.32 18 2 C18.33 2.99 18.66 3.98 19 5 C16.20645432 4.55135776 13.41555328 4.09158769 10.625 3.625 C9.8309375 3.49867188 9.036875 3.37234375 8.21875 3.2421875 C7.45820313 3.11328125 6.69765625 2.984375 5.9140625 2.8515625 C5.2123291 2.73635254 4.5105957 2.62114258 3.78759766 2.50244141 C2 2 2 2 0 0 Z " fill="#A5A4A3" transform="translate(143,306)"/>
<path d="M0 0 C3.63 0.66 7.26 1.32 11 2 C7.29847322 2.92538169 6.36541838 3.08174162 3 2 C2.67 3.32 2.34 4.64 2 6 C-0.64 5.01 -3.28 4.02 -6 3 C-6 2.67 -6 2.34 -6 2 C-4.02 2 -2.04 2 0 2 C0 1.34 0 0.68 0 0 Z " fill="#ACABAA" transform="translate(139,301)"/>
<path d="M0 0 C0.66 0.33 1.32 0.66 2 1 C0.58833114 1.98635837 -0.82956184 2.96381255 -2.25 3.9375 C-3.43335938 4.75541016 -3.43335938 4.75541016 -4.640625 5.58984375 C-6.82636993 6.89622441 -8.5153801 7.54980511 -11 8 C-11 6.35 -11 4.7 -11 3 C-9.35 2.34 -7.7 1.68 -6 1 C-6.33 1.99 -6.66 2.98 -7 4 C-5.88625 3.319375 -4.7725 2.63875 -3.625 1.9375 C-1.7265625 0.77734375 -1.7265625 0.77734375 0 0 Z " fill="#B9B8B7" transform="translate(260,286)"/>
<path d="M0 0 C2.87231652 1.28759017 5.19225634 2.37877169 7 5 C7.1875 8.6875 7.1875 8.6875 7 12 C3.71534104 9.20803989 1.98678042 5.76803183 0 2 C0 1.34 0 0.68 0 0 Z " fill="#C12322" transform="translate(160,167)"/>
<path d="M0 0 C1.25425781 0.00902344 2.50851562 0.01804688 3.80078125 0.02734375 C4.75339844 0.03894531 5.70601563 0.05054688 6.6875 0.0625 C6.6875 0.7225 6.6875 1.3825 6.6875 2.0625 C4.45906512 2.25850577 2.22970107 2.44396569 0 2.625 C-1.86205078 2.78162109 -1.86205078 2.78162109 -3.76171875 2.94140625 C-6.87085533 3.04743841 -9.32060972 2.83478525 -12.3125 2.0625 C-12.3125 1.7325 -12.3125 1.4025 -12.3125 1.0625 C-8.15623632 0.05323521 -4.26884906 -0.03989579 0 0 Z " fill="#626161" transform="translate(284.3125,166.9375)"/>
<path d="M0 0 C-6.70019789 0.70132913 -13.26257354 1.11044961 -20 1 C-14.15207865 -2.89861423 -6.19157368 -3.48879318 0 0 Z " fill="#A8A7A7" transform="translate(199,108)"/>
<path d="M0 0 C-0.33 1.65 -0.66 3.3 -1 5 C-0.01 5.33 0.98 5.66 2 6 C0.35 6.33 -1.3 6.66 -3 7 C-3.33 6.34 -3.66 5.68 -4 5 C-6.52733235 4.34444881 -6.52733235 4.34444881 -9 4 C-6.10130984 1.70103884 -3.84906588 0 0 0 Z " fill="#D1CFD0" transform="translate(153,55)"/>
<path d="M0 0 C2.6617678 0.38539109 5.32818418 0.68828815 8 1 C4.81237635 3.12508244 2.73487777 3.5020163 -1 4 C-1 3.34 -1 2.68 -1 2 C-3.97 1.67 -6.94 1.34 -10 1 C-10 0.67 -10 0.34 -10 0 C-6.23499611 -0.77011443 -3.66558767 -1.07811402 0 0 Z " fill="#B6B5B5" transform="translate(207,306)"/>
<path d="M0 0 C3.3 0.66 6.6 1.32 10 2 C10.33 2.99 10.66 3.98 11 5 C6.12335991 5.34833144 3.22949995 4.41685712 -1 2 C-0.67 1.34 -0.34 0.68 0 0 Z " fill="#F0EFEF" transform="translate(128,298)"/>
<path d="M0 0 C-0.8125 1.9375 -0.8125 1.9375 -2 4 C-2.99 4.33 -3.98 4.66 -5 5 C-5 4.34 -5 3.68 -5 3 C-7.97 2.67 -10.94 2.34 -14 2 C-14 1.67 -14 1.34 -14 1 C-9.32798795 -0.20568053 -4.78503708 -0.09382426 0 0 Z " fill="#FBF9FA" transform="translate(224,103)"/>
<path d="M0 0 C0 0.99 0 1.98 0 3 C-2.35438733 4.42944945 -3.48032433 5.08661261 -6.25 4.625 C-6.8275 4.41875 -7.405 4.2125 -8 4 C-7.1875 2.0625 -7.1875 2.0625 -6 0 C-3 -1 -3 -1 0 0 Z " fill="#F8F6F6" transform="translate(204,118)"/>
<path d="M0 0 C0.99 0.33 1.98 0.66 3 1 C2.67 1.99 2.34 2.98 2 4 C-0.93448193 5.30421419 -3.09286838 6.09806828 -6.3125 5.75 C-8 5 -8 5 -9 3 C-7.68 2.67 -6.36 2.34 -5 2 C-5 2.66 -5 3.32 -5 4 C-4.34 3.34 -3.68 2.68 -3 2 C-2.01 1.34 -1.02 0.68 0 0 Z " fill="#FBFAFA" transform="translate(139,8)"/>
<path d="M0 0 C4.35535069 1.16142685 6.64619703 2.07699505 9 6 C8.01 6.66 7.02 7.32 6 8 C4.99403703 7.0479279 3.99538437 6.08812654 3 5.125 C2.443125 4.59132813 1.88625 4.05765625 1.3125 3.5078125 C0 2 0 2 0 0 Z " fill="#F9F8F8" transform="translate(72,260)"/>
<path d="M0 0 C0.66 0.33 1.32 0.66 2 1 C2.28571429 8.42857143 2.28571429 8.42857143 0 12 C-0.33 12 -0.66 12 -1 12 C-1.22162329 10.37675914 -1.42689803 8.751279 -1.625 7.125 C-1.74101562 6.22007812 -1.85703125 5.31515625 -1.9765625 4.3828125 C-1.98429688 3.59648437 -1.99203125 2.81015625 -2 2 C-1.34 1.34 -0.68 0.68 0 0 Z " fill="#A40606" transform="translate(167,176)"/>
<path d="M0 0 C0 3.72820818 -0.84132013 4.97784819 -3 8 C-4.92395293 9.79666851 -6.9177066 11.38043847 -9 13 C-7.47987323 7.59510481 -3.72614782 4.01507372 0 0 Z " fill="#ADACAC" transform="translate(69,52)"/>
<path d="M0 0 C0.66 0.33 1.32 0.66 2 1 C0.88424427 4.34726719 0.48655378 4.62079748 -2.4375 6.25 C-4.2009375 7.11625 -4.2009375 7.11625 -6 8 C-6.66 7.67 -7.32 7.34 -8 7 C-3.76744186 1.25581395 -3.76744186 1.25581395 0 0 Z " fill="#EBEAEA" transform="translate(259,283)"/>
<path d="M0 0 C0.99 0.33 1.98 0.66 3 1 C1.33248852 4.94139078 -1.22710649 7.7892812 -4 11 C-4 6.65139047 -3.11210822 3.11210822 0 0 Z " fill="#B6B5B4" transform="translate(295,251)"/>
<path d="M0 0 C0.33 0 0.66 0 1 0 C1 2.31 1 4.62 1 7 C1.66 7 2.32 7 3 7 C2.39773952 11.21582339 1.42902856 11.57097144 -2 15 C-1.34 10.05 -0.68 5.1 0 0 Z " fill="#4F0102" transform="translate(162,182)"/>
<path d="M0 0 C0.375 7.5 0.375 7.5 -3 12 C-3 8.37 -3 4.74 -3 1 C-1 0 -1 0 0 0 Z " fill="#C9C8C8" transform="translate(227,60)"/>
<path d="M0 0 C2.97 0.495 2.97 0.495 6 1 C6.33 2.65 6.66 4.3 7 6 C5.35 6 3.7 6 2 6 C1.34 4.02 0.68 2.04 0 0 Z " fill="#F2F0F0" transform="translate(256,24)"/>
<path d="M0 0 C0.66 0 1.32 0 2 0 C2.07347656 1.06541016 2.07347656 1.06541016 2.1484375 2.15234375 C2.22320312 3.07144531 2.29796875 3.99054688 2.375 4.9375 C2.44460937 5.85402344 2.51421875 6.77054688 2.5859375 7.71484375 C2.72257813 8.46894531 2.85921875 9.22304687 3 10 C3.66 10.33 4.32 10.66 5 11 C3.35 11.33 1.7 11.66 0 12 C0 8.04 0 4.08 0 0 Z " fill="#0B3406" transform="translate(155,157)"/>
<path d="M0 0 C0 3.63 0 7.26 0 11 C-0.99 10.34 -1.98 9.68 -3 9 C-3.6875 5.375 -3.6875 5.375 -4 2 C-1 0 -1 0 0 0 Z " fill="#F4F2F2" transform="translate(38,129)"/>
<path d="M0 0 C0.66 0 1.32 0 2 0 C2 3.3 2 6.6 2 10 C1.01 9.67 0.02 9.34 -1 9 C-1.125 2.25 -1.125 2.25 0 0 Z " fill="#BBBABA" transform="translate(128,105)"/>
<path d="M0 0 C0 0.99 0 1.98 0 3 C-0.66 3 -1.32 3 -2 3 C-2.33 3.99 -2.66 4.98 -3 6 C-3.33 5.01 -3.66 4.02 -4 3 C-6.97 2.505 -6.97 2.505 -10 2 C-6.3558226 -0.4294516 -4.28758728 -0.16179575 0 0 Z " fill="#BEBDBD" transform="translate(227,101)"/>
<path d="M0 0 C-0.57352893 3.87132028 -2.48704352 6.08172796 -5 9 C-5.75 6.75 -5.75 6.75 -6 4 C-2.86486486 0 -2.86486486 0 0 0 Z " fill="#EEECEC" transform="translate(68,61)"/>
<path d="M0 0 C-0.66 1.65 -1.32 3.3 -2 5 C-3.32 5 -4.64 5 -6 5 C-6 4.01 -6 3.02 -6 2 C-3 0 -3 0 0 0 Z " fill="#E3E2E2" transform="translate(145,59)"/>
<path d="M0 0 C0.33 0.99 0.66 1.98 1 3 C-0.375 4.5 -0.375 4.5 -2 6 C-2.66 6 -3.32 6 -4 6 C-5.36161311 6.96113866 -6.69855198 7.95884159 -8 9 C-6.4169423 4.7257442 -3.49431596 2.73468206 0 0 Z " fill="#E9E8E8" transform="translate(298,247)"/>
<path d="M0 0 C0.80824219 0.10183594 1.61648437 0.20367187 2.44921875 0.30859375 C3.06410156 0.39238281 3.67898437 0.47617188 4.3125 0.5625 C4.3125 1.2225 4.3125 1.8825 4.3125 2.5625 C2.8754191 2.61672947 1.43774538 2.65539723 0 2.6875 C-0.80050781 2.71070313 -1.60101563 2.73390625 -2.42578125 2.7578125 C-4.6875 2.5625 -4.6875 2.5625 -7.6875 0.5625 C-4.59271121 -0.46909626 -3.16118607 -0.41232862 0 0 Z " fill="#424242" transform="translate(98.6875,184.4375)"/>
<path d="M0 0 C0.99 0 1.98 0 3 0 C3 1.65 3 3.3 3 5 C1.824375 5.4640625 1.824375 5.4640625 0.625 5.9375 C-1.92330128 6.92875038 -1.92330128 6.92875038 -4 8 C-2.66666667 5.33333333 -1.33333333 2.66666667 0 0 Z " fill="#FBF9F8" transform="translate(56,72)"/>
<path d="M0 0 C1 3 1 3 -0.1875 5.4375 C-1.93979049 7.91487622 -3.78315483 9.9360407 -6 12 C-4.68139111 7.38486888 -2.78644563 3.90102388 0 0 Z " fill="#ABA9A9" transform="translate(56,69)"/>
<path d="M0 0 C1.65 0.33 3.3 0.66 5 1 C5 2.32 5 3.64 5 5 C3.35 5 1.7 5 0 5 C-0.33 4.34 -0.66 3.68 -1 3 C-0.67 2.01 -0.34 1.02 0 0 Z " fill="#EBEAE9" transform="translate(230,11)"/>
<path d="M0 0 C-0.33 0.99 -0.66 1.98 -1 3 C-3.0625 3.6875 -3.0625 3.6875 -5 4 C-5 3.34 -5 2.68 -5 2 C-6.98 2.33 -8.96 2.66 -11 3 C-7.63114177 -0.36885823 -4.54278442 -0.10095076 0 0 Z " fill="#C0BFBE" transform="translate(139,8)"/>
<path d="M0 0 C1.32 0 2.64 0 4 0 C5.125 3.75 5.125 3.75 4 6 C2.35 5.67 0.7 5.34 -1 5 C-0.67 3.35 -0.34 1.7 0 0 Z " fill="#E0DFDF" transform="translate(220,7)"/>
<path d="M0 0 C-0.33 0.99 -0.66 1.98 -1 3 C-2.98 3 -4.96 3 -7 3 C-7.33 2.01 -7.66 1.02 -8 0 C-4.71303767 -0.79953138 -3.28976808 -1.09658936 0 0 Z " fill="#FDFCFB" transform="translate(159,5)"/>
<path d="M0 0 C-3.08888522 2.05925681 -3.70935927 2.2390374 -7.1875 2.125 C-9.0746875 2.063125 -9.0746875 2.063125 -11 2 C-7.72338241 -1.27661759 -4.29690696 -1.43230232 0 0 Z " fill="#FAF9F9" transform="translate(216,305)"/>
<path d="M0 0 C-0.99 0.33 -1.98 0.66 -3 1 C-3 2.32 -3 3.64 -3 5 C-3.99 5.33 -4.98 5.66 -6 6 C-6 5.34 -6 4.68 -6 4 C-6.66 3.67 -7.32 3.34 -8 3 C-7.34 2.67 -6.68 2.34 -6 2 C-6.33 1.34 -6.66 0.68 -7 0 C-3.86650268 -1.04449911 -3.01031744 -0.93423645 0 0 Z " fill="#DBDADA" transform="translate(201,118)"/>
<path d="M0 0 C0 2.64 0 5.28 0 8 C-0.66 7.01 -1.32 6.02 -2 5 C-2.99 5.66 -3.98 6.32 -5 7 C-4.53479806 4.30182875 -3.4249099 0 0 0 Z " fill="#F2F0F0" transform="translate(40,119)"/>
<path d="M0 0 C1.42944945 2.35438733 2.08661261 3.48032433 1.625 6.25 C1.41875 6.8275 1.2125 7.405 1 8 C1 7.34 1 6.68 1 6 C-0.32 6.33 -1.64 6.66 -3 7 C-2.67 5.35 -2.34 3.7 -2 2 C-1.34 2 -0.68 2 0 2 C0 1.34 0 0.68 0 0 Z " fill="#ECEBEA" transform="translate(324,115)"/>
<path d="M0 0 C-1.485 1.98 -1.485 1.98 -3 4 C-2.34 4.33 -1.68 4.66 -1 5 C-2.32 5.33 -3.64 5.66 -5 6 C-5.33 5.01 -5.66 4.02 -6 3 C-6.66 2.34 -7.32 1.68 -8 1 C-5.07175348 0.02391783 -3.04386724 -0.08226668 0 0 Z " fill="#EAE8E9" transform="translate(209,115)"/>
<path d="M0 0 C2.33944736 0.28730055 4.6739143 0.61936779 7 1 C6.67 1.99 6.34 2.98 6 4 C4.02 4 2.04 4 0 4 C-0.33 4.66 -0.66 5.32 -1 6 C-1.042721 4.33388095 -1.04063832 2.66617115 -1 1 C-0.67 0.67 -0.34 0.34 0 0 Z " fill="#BEBCBD" transform="translate(149,86)"/>
<path d="M0 0 C-0.33 0.66 -0.66 1.32 -1 2 C-3.28515625 2.4140625 -3.28515625 2.4140625 -6.0625 2.625 C-6.98160156 2.69976562 -7.90070313 2.77453125 -8.84765625 2.8515625 C-9.55792969 2.90054688 -10.26820313 2.94953125 -11 3 C-7.65817252 -1.0165182 -4.96805907 -0.24433077 0 0 Z " fill="#DBDADA" transform="translate(160,70)"/>
<path d="M0 0 C-0.33 1.32 -0.66 2.64 -1 4 C-3.64 4 -6.28 4 -9 4 C-8 2 -8 2 -5.0625 0.875 C-2 0 -2 0 0 0 Z " fill="#F7F7F6" transform="translate(226,301)"/>
<path d="M0 0 C0.99 0.33 1.98 0.66 3 1 C2.67 1.99 2.34 2.98 2 4 C0.02 4.33 -1.96 4.66 -4 5 C-2.25 1.125 -2.25 1.125 0 0 Z " fill="#E9E9E9" transform="translate(247,290)"/>
<path d="M0 0 C0.66 0.33 1.32 0.66 2 1 C1.34 1.66 0.68 2.32 0 3 C1.32 3.66 2.64 4.32 4 5 C1.03 5 -1.94 5 -5 5 C-3.35 3.35 -1.7 1.7 0 0 Z " fill="#2C2C2C" transform="translate(143,65)"/>
<path d="M0 0 C2.475 0.99 2.475 0.99 5 2 C4.67 3.32 4.34 4.64 4 6 C3.01 5.67 2.02 5.34 1 5 C0.67 3.35 0.34 1.7 0 0 Z " fill="#F8F6F5" transform="translate(61,245)"/>
<path d="M0 0 C1.5 1.375 1.5 1.375 3 3 C3 3.66 3 4.32 3 5 C2.34 5 1.68 5 1 5 C1 6.98 1 8.96 1 11 C0.34 10.34 -0.32 9.68 -1 9 C-0.9765625 6.8359375 -0.9765625 6.8359375 -0.625 4.375 C-0.51414063 3.55773437 -0.40328125 2.74046875 -0.2890625 1.8984375 C-0.19367187 1.27195313 -0.09828125 0.64546875 0 0 Z " fill="#CCCBCA" transform="translate(54,229)"/>
<path d="M0 0 C0.66 0.33 1.32 0.66 2 1 C-1.07999946 4.67230705 -3.2482602 5.56802365 -8 6 C-5.63404067 3.38499232 -3.13950774 1.61000397 0 0 Z " fill="#CDCCCC" transform="translate(215,109)"/>
<path d="M0 0 C3.625 -0.1875 3.625 -0.1875 7 0 C6.67 0.99 6.34 1.98 6 3 C3.36 3 0.72 3 -2 3 C-1.34 2.01 -0.68 1.02 0 0 Z " fill="#4F4F4F" transform="translate(213,91)"/>
<path d="M0 0 C1.32 0 2.64 0 4 0 C4 1.98 4 3.96 4 6 C3.01 5.67 2.02 5.34 1 5 C0.67 3.35 0.34 1.7 0 0 Z " fill="#F8F7F6" transform="translate(56,238)"/>
<path d="M0 0 C0.99 0 1.98 0 3 0 C3.33 1.32 3.66 2.64 4 4 C3.34 4 2.68 4 2 4 C1.67 4.66 1.34 5.32 1 6 C0 5 0 5 -0.0625 2.4375 C-0.041875 1.633125 -0.02125 0.82875 0 0 Z " fill="#F8F7F6" transform="translate(320,113)"/>
<path d="M0 0 C1.47919922 0.19142578 1.47919922 0.19142578 2.98828125 0.38671875 C4.47908203 0.56654297 4.47908203 0.56654297 6 0.75 C6.75925781 0.85699219 7.51851562 0.96398438 8.30078125 1.07421875 C8.30078125 1.40421875 8.30078125 1.73421875 8.30078125 2.07421875 C3.68078125 2.40421875 -0.93921875 2.73421875 -5.69921875 3.07421875 C-2.69921875 0.07421875 -2.69921875 0.07421875 0 0 Z " fill="#ADACAC" transform="translate(181.69921875,51.92578125)"/>
<path d="M0 0 C1.32 0.33 2.64 0.66 4 1 C4 1.66 4 2.32 4 3 C4.66 3.33 5.32 3.66 6 4 C4.02 4.33 2.04 4.66 0 5 C0 3.35 0 1.7 0 0 Z " fill="#ECEBEA" transform="translate(148,5)"/>
</svg>
